<svg width="35" height="23" viewBox="0 0 35 23" fill="none" xmlns="http://www.w3.org/2000/svg">
<g filter="url(#filter0_d_28_3663)">
<rect y="2.21094" width="18" height="18" rx="9" fill="white" shape-rendering="crispEdges"/>
<path d="M14.5598 8.45821L7.55977 15.4582C7.51914 15.4989 7.47089 15.5312 7.41778 15.5532C7.36467 15.5752 7.30774 15.5865 7.25024 15.5865C7.19275 15.5865 7.13582 15.5752 7.08271 15.5532C7.0296 15.5312 6.98134 15.4989 6.94071 15.4582L3.87821 12.3957C3.79612 12.3136 3.75 12.2023 3.75 12.0862C3.75 11.9701 3.79612 11.8587 3.87821 11.7766C3.9603 11.6946 4.07165 11.6484 4.18774 11.6484C4.30384 11.6484 4.41518 11.6946 4.49727 11.7766L7.25024 14.5302L13.9407 7.83915C14.0228 7.75706 14.1341 7.71094 14.2502 7.71094C14.3663 7.71094 14.4777 7.75706 14.5598 7.83915C14.6419 7.92124 14.688 8.03258 14.688 8.14868C14.688 8.26478 14.6419 8.37612 14.5598 8.45821Z" fill="#141721"/>
</g>
<defs>
<filter id="filter0_d_28_3663" x="-16.5612" y="-9.02226" width="51.1224" height="51.1224" filterUnits="userSpaceOnUse" color-interpolation-filters="sRGB">
<feFlood flood-opacity="0" result="BackgroundImageFix"/>
<feColorMatrix in="SourceAlpha" type="matrix" values="0 0 0 0 0 0 0 0 0 0 0 0 0 0 0 0 0 0 127 0" result="hardAlpha"/>
<feOffset dy="5.328"/>
<feGaussianBlur stdDeviation="8.2806"/>
<feComposite in2="hardAlpha" operator="out"/>
<feColorMatrix type="matrix" values="0 0 0 0 0 0 0 0 0 0 0 0 0 0 0 0 0 0 0.08 0"/>
<feBlend mode="normal" in2="BackgroundImageFix" result="effect1_dropShadow_28_3663"/>
<feBlend mode="normal" in="SourceGraphic" in2="effect1_dropShadow_28_3663" result="shape"/>
</filter>
</defs>
</svg>
