<svg width="22" height="22" viewBox="0 0 22 22" fill="none" xmlns="http://www.w3.org/2000/svg">
<rect width="22" height="22" rx="11" fill="#F7F7F7"/>
<path d="M16.25 11C16.25 11.116 16.2039 11.2273 16.1219 11.3094C16.0398 11.3914 15.9285 11.4375 15.8125 11.4375H11.4375V15.8125C11.4375 15.9285 11.3914 16.0398 11.3094 16.1219C11.2273 16.2039 11.116 16.25 11 16.25C10.884 16.25 10.7727 16.2039 10.6906 16.1219C10.6086 16.0398 10.5625 15.9285 10.5625 15.8125V11.4375H6.1875C6.07147 11.4375 5.96019 11.3914 5.87814 11.3094C5.79609 11.2273 5.75 11.116 5.75 11C5.75 10.884 5.79609 10.7727 5.87814 10.6906C5.96019 10.6086 6.07147 10.5625 6.1875 10.5625H10.5625V6.1875C10.5625 6.07147 10.6086 5.96019 10.6906 5.87814C10.7727 5.79609 10.884 5.75 11 5.75C11.116 5.75 11.2273 5.79609 11.3094 5.87814C11.3914 5.96019 11.4375 6.07147 11.4375 6.1875V10.5625H15.8125C15.9285 10.5625 16.0398 10.6086 16.1219 10.6906C16.2039 10.7727 16.25 10.884 16.25 11Z" fill="#141721"/>
</svg>
