<svg width="42" height="42" viewBox="0 0 42 42" fill="none" xmlns="http://www.w3.org/2000/svg">
<rect width="41.269" height="41.269" rx="20.6345" fill="#010101"/>
<path d="M14.2582 16.8142H26.183V15.1106H14.2582V16.8142ZM14.2582 28.7389C13.7898 28.7389 13.3889 28.5723 13.0555 28.2389C12.7222 27.9056 12.5553 27.5044 12.5547 27.0354V15.1106C12.5547 14.6422 12.7216 14.2413 13.0555 13.9079C13.3894 13.5746 13.7903 13.4077 14.2582 13.4071H15.11V12.5553C15.11 12.314 15.1918 12.1118 15.3553 11.9489C15.5188 11.7859 15.721 11.7041 15.9618 11.7036C16.2025 11.703 16.405 11.7848 16.5691 11.9489C16.7332 12.113 16.8147 12.3151 16.8135 12.5553V13.4071H23.6277V12.5553C23.6277 12.314 23.7094 12.1118 23.873 11.9489C24.0365 11.7859 24.2387 11.7041 24.4794 11.7036C24.7202 11.703 24.9226 11.7848 25.0868 11.9489C25.2509 12.113 25.3324 12.3151 25.3312 12.5553V13.4071H26.183C26.6515 13.4071 27.0526 13.574 27.3865 13.9079C27.7204 14.2418 27.8871 14.6427 27.8865 15.1106V19.0926C27.8865 19.334 27.8048 19.5364 27.6412 19.7C27.4777 19.8635 27.2755 19.945 27.0348 19.9444C26.794 19.9438 26.5918 19.8621 26.4283 19.6991C26.2648 19.5361 26.183 19.334 26.183 19.0926V18.5177H14.2582V27.0354H19.1985C19.4398 27.0354 19.6423 27.1172 19.8058 27.2807C19.9693 27.4442 20.0508 27.6464 20.0503 27.8872C20.0497 28.1279 19.9679 28.3304 19.8049 28.4945C19.642 28.6586 19.4398 28.7401 19.1985 28.7389H14.2582ZM22.3185 28.3454C21.4878 27.5147 21.0724 26.5101 21.0724 25.3319C21.0724 24.1536 21.4878 23.1493 22.3185 22.3191C23.1493 21.489 24.1535 21.0736 25.3312 21.073C26.5089 21.0724 27.5134 21.4878 28.3448 22.3191C29.1761 23.1505 29.5912 24.1547 29.5901 25.3319C29.5889 26.509 29.1735 27.5135 28.3439 28.3454C27.5143 29.1773 26.5101 29.5924 25.3312 29.5907C24.1524 29.589 23.1481 29.1745 22.3185 28.3454ZM25.7571 25.1615V23.2024C25.7571 23.0889 25.7145 22.9895 25.6293 22.9043C25.5442 22.8191 25.4448 22.7765 25.3312 22.7765C25.2176 22.7765 25.1183 22.8191 25.0331 22.9043C24.9479 22.9895 24.9053 23.0889 24.9053 23.2024V25.1402C24.9053 25.2538 24.9266 25.3639 24.9692 25.4707C25.0118 25.5774 25.0757 25.6731 25.1609 25.7577L26.4598 27.0567C26.545 27.1419 26.6444 27.1844 26.7579 27.1844C26.8715 27.1844 26.9709 27.1419 27.056 27.0567C27.1412 26.9715 27.1838 26.8721 27.1838 26.7586C27.1838 26.645 27.1412 26.5456 27.056 26.4604L25.7571 25.1615Z" fill="white"/>
</svg>
