<svg width="24" height="24" viewBox="0 0 24 24" fill="none" xmlns="http://www.w3.org/2000/svg">
<path d="M22.062 6.87821L17.1223 1.93946C16.983 1.80014 16.8176 1.68962 16.6356 1.61421C16.4536 1.53881 16.2585 1.5 16.0615 1.5C15.8645 1.5 15.6694 1.53881 15.4874 1.61421C15.3054 1.68962 15.14 1.80014 15.0007 1.93946L1.93946 14.9998C1.80014 15.1391 1.68962 15.3044 1.61421 15.4865C1.53881 15.6685 1.5 15.8635 1.5 16.0606C1.5 16.2576 1.53881 16.4526 1.61421 16.6347C1.68962 16.8167 1.80014 16.982 1.93946 17.1213L6.87915 22.0601C7.01844 22.1994 7.18382 22.3099 7.36583 22.3853C7.54784 22.4607 7.74292 22.4995 7.93993 22.4995C8.13694 22.4995 8.33202 22.4607 8.51403 22.3853C8.69604 22.3099 8.86142 22.1994 9.00071 22.0601L22.062 8.99977C22.2013 8.86048 22.3118 8.69511 22.3872 8.5131C22.4626 8.33109 22.5014 8.136 22.5014 7.93899C22.5014 7.74198 22.4626 7.5469 22.3872 7.36489C22.3118 7.18288 22.2013 7.0175 22.062 6.87821ZM7.93946 20.9998L3.00071 16.0601L6.00071 13.0601L8.47009 15.5304C8.53977 15.6001 8.62249 15.6554 8.71354 15.6931C8.80458 15.7308 8.90217 15.7502 9.00071 15.7502C9.09926 15.7502 9.19684 15.7308 9.28788 15.6931C9.37893 15.6554 9.46165 15.6001 9.53134 15.5304C9.60102 15.4607 9.65629 15.378 9.69401 15.2869C9.73172 15.1959 9.75113 15.0983 9.75113 14.9998C9.75113 14.9012 9.73172 14.8036 9.69401 14.7126C9.65629 14.6216 9.60102 14.5388 9.53134 14.4691L7.06102 11.9998L9.00071 10.0601L11.4701 12.5304C11.6108 12.6711 11.8017 12.7502 12.0007 12.7502C12.1997 12.7502 12.3906 12.6711 12.5313 12.5304C12.6721 12.3897 12.7511 12.1988 12.7511 11.9998C12.7511 11.8008 12.6721 11.6099 12.5313 11.4691L10.061 8.99977L12.0007 7.06009L14.4701 9.5304C14.5398 9.60008 14.6225 9.65536 14.7135 9.69307C14.8046 9.73078 14.9022 9.75019 15.0007 9.75019C15.0993 9.75019 15.1968 9.73078 15.2879 9.69307C15.3789 9.65536 15.4617 9.60008 15.5313 9.5304C15.601 9.46072 15.6563 9.37799 15.694 9.28695C15.7317 9.1959 15.7511 9.09832 15.7511 8.99977C15.7511 8.90123 15.7317 8.80365 15.694 8.7126C15.6563 8.62156 15.601 8.53883 15.5313 8.46915L13.061 5.99977L16.061 2.99977L21.0007 7.93946L7.93946 20.9998Z" fill="#141721"/>
</svg>
