<svg width="24" height="24" viewBox="0 0 24 24" fill="none" xmlns="http://www.w3.org/2000/svg">
<g clip-path="url(#clip0_28_3416)">
<path d="M23.2507 7.50015C23.251 7.08901 23.1548 6.68354 22.9698 6.3164C22.7847 5.94926 22.5161 5.63072 22.1854 5.38644C21.8547 5.14216 21.4712 4.97898 21.0659 4.91003C20.6606 4.84108 20.2447 4.8683 19.8519 4.9895C19.459 5.11069 19.1001 5.32247 18.8041 5.60778C18.5081 5.89308 18.2832 6.24393 18.1476 6.63206C18.012 7.02019 17.9694 7.43474 18.0234 7.84232C18.0773 8.2499 18.2263 8.6391 18.4582 8.97858L15.9466 12.0723L13.6882 6.8814C14.1001 6.53473 14.3954 6.06979 14.5342 5.54961C14.6729 5.02943 14.6484 4.47917 14.4639 3.97341C14.2794 3.46764 13.9438 3.03084 13.5027 2.72221C13.0616 2.41358 12.5362 2.24805 11.9979 2.24805C11.4595 2.24805 10.9342 2.41358 10.493 2.72221C10.0519 3.03084 9.71636 3.46764 9.53185 3.97341C9.34734 4.47917 9.3228 5.02943 9.46156 5.54961C9.60032 6.06979 9.89566 6.53473 10.3076 6.8814L8.05475 12.0695L5.54319 8.97577C5.86582 8.50303 6.02511 7.9378 5.99679 7.36617C5.96847 6.79453 5.7541 6.24781 5.38633 5.80927C5.01855 5.37073 4.51753 5.06441 3.95956 4.93695C3.4016 4.8095 2.81726 4.8679 2.29555 5.10326C1.77384 5.33861 1.34335 5.73803 1.06964 6.24068C0.79593 6.74333 0.693998 7.32166 0.779371 7.8876C0.864743 8.45353 1.13274 8.97606 1.54255 9.3756C1.95236 9.77513 2.48152 10.0298 3.04944 10.1008L4.40694 18.2467C4.4653 18.5969 4.64599 18.9151 4.91687 19.1446C5.18776 19.3741 5.53127 19.5001 5.88631 19.5001H18.1151C18.4701 19.5001 18.8136 19.3741 19.0845 19.1446C19.3554 18.9151 19.5361 18.5969 19.5944 18.2467L20.951 10.1045C21.5859 10.0252 22.1699 9.71682 22.5934 9.23724C23.0168 8.75766 23.2506 8.13993 23.2507 7.50015ZM12.0007 3.75015C12.2232 3.75015 12.4407 3.81613 12.6257 3.93974C12.8107 4.06336 12.9549 4.23906 13.0401 4.44463C13.1252 4.65019 13.1475 4.87639 13.1041 5.09462C13.0607 5.31285 12.9535 5.51331 12.7962 5.67064C12.6388 5.82798 12.4384 5.93512 12.2202 5.97853C12.0019 6.02194 11.7757 5.99966 11.5702 5.91451C11.3646 5.82936 11.1889 5.68517 11.0653 5.50016C10.9417 5.31516 10.8757 5.09765 10.8757 4.87515C10.8757 4.57678 10.9942 4.29063 11.2052 4.07965C11.4162 3.86867 11.7023 3.75015 12.0007 3.75015ZM2.25069 7.50015C2.25069 7.27764 2.31667 7.06014 2.44028 6.87513C2.5639 6.69013 2.7396 6.54593 2.94517 6.46078C3.15073 6.37563 3.37693 6.35335 3.59516 6.39676C3.81339 6.44017 4.01385 6.54732 4.17118 6.70465C4.32852 6.86199 4.43566 7.06244 4.47907 7.28067C4.52248 7.4989 4.5002 7.7251 4.41505 7.93067C4.3299 8.13623 4.18571 8.31193 4.0007 8.43555C3.8157 8.55917 3.59819 8.62515 3.37569 8.62515C3.07732 8.62515 2.79117 8.50662 2.58019 8.29564C2.36921 8.08466 2.25069 7.79852 2.25069 7.50015ZM18.1151 18.0001H5.88631L4.58131 10.1739L7.6685 13.9689C7.73842 14.0562 7.82699 14.1268 7.92773 14.1755C8.02847 14.2241 8.13881 14.2497 8.25069 14.2501C8.28455 14.2503 8.31838 14.2481 8.35194 14.2436C8.47971 14.2262 8.60084 14.1762 8.70364 14.0984C8.80645 14.0205 8.88744 13.9175 8.93881 13.7992L11.6857 7.48046C11.8949 7.50669 12.1065 7.50669 12.3157 7.48046L15.0626 13.7992C15.1139 13.9175 15.1949 14.0205 15.2977 14.0984C15.4005 14.1762 15.5217 14.2262 15.6494 14.2436C15.683 14.2481 15.7168 14.2503 15.7507 14.2501C15.8626 14.2497 15.9729 14.2241 16.0736 14.1755C16.1744 14.1268 16.263 14.0562 16.3329 13.9689L19.4201 10.1701L18.1151 18.0001ZM20.6257 8.62515C20.4032 8.62515 20.1857 8.55917 20.0007 8.43555C19.8157 8.31193 19.6715 8.13623 19.5863 7.93067C19.5012 7.7251 19.4789 7.4989 19.5223 7.28067C19.5657 7.06244 19.6729 6.86199 19.8302 6.70465C19.9875 6.54732 20.188 6.44017 20.4062 6.39676C20.6244 6.35335 20.8506 6.37563 21.0562 6.46078C21.2618 6.54593 21.4375 6.69013 21.5611 6.87513C21.6847 7.06014 21.7507 7.27764 21.7507 7.50015C21.7507 7.79852 21.6322 8.08466 21.4212 8.29564C21.2102 8.50662 20.9241 8.62515 20.6257 8.62515Z" fill="#141721"/>
</g>
<defs>
<clipPath id="clip0_28_3416">
<rect width="24" height="24" fill="white"/>
</clipPath>
</defs>
</svg>
