<svg width="24" height="24" viewBox="0 0 24 24" fill="none" xmlns="http://www.w3.org/2000/svg">
<path d="M2.25059 12.0004C2.25258 10.2108 2.96437 8.49508 4.22981 7.22964C5.49525 5.9642 7.21099 5.2524 9.00059 5.25042H19.1903L18.22 4.28104C18.0792 4.14031 18.0002 3.94944 18.0002 3.75042C18.0002 3.55139 18.0792 3.36052 18.22 3.21979C18.3607 3.07906 18.5516 3 18.7506 3C18.9496 3 19.1405 3.07906 19.2812 3.21979L21.5312 5.46979C21.6009 5.53945 21.6563 5.62216 21.694 5.71321C21.7318 5.80426 21.7512 5.90186 21.7512 6.00042C21.7512 6.09898 21.7318 6.19657 21.694 6.28762C21.6563 6.37867 21.6009 6.46139 21.5312 6.53104L19.2812 8.78104C19.1405 8.92177 18.9496 9.00083 18.7506 9.00083C18.5516 9.00083 18.3607 8.92177 18.22 8.78104C18.0792 8.64031 18.0002 8.44944 18.0002 8.25042C18.0002 8.05139 18.0792 7.86052 18.22 7.71979L19.1903 6.75042H9.00059C7.60866 6.75191 6.27417 7.30551 5.28992 8.28975C4.30568 9.27399 3.75208 10.6085 3.75059 12.0004C3.75059 12.1993 3.67157 12.3901 3.53092 12.5307C3.39027 12.6714 3.1995 12.7504 3.00059 12.7504C2.80168 12.7504 2.61091 12.6714 2.47026 12.5307C2.32961 12.3901 2.25059 12.1993 2.25059 12.0004ZM21.0006 11.2504C20.8017 11.2504 20.6109 11.3294 20.4703 11.4701C20.3296 11.6107 20.2506 11.8015 20.2506 12.0004C20.2491 13.3923 19.6955 14.7268 18.7113 15.7111C17.727 16.6953 16.3925 17.2489 15.0006 17.2504H4.8109L5.78121 16.281C5.8509 16.2114 5.90617 16.1286 5.94388 16.0376C5.9816 15.9465 6.00101 15.849 6.00101 15.7504C6.00101 15.6519 5.9816 15.5543 5.94388 15.4632C5.90617 15.3722 5.8509 15.2895 5.78121 15.2198C5.71153 15.1501 5.62881 15.0948 5.53776 15.0571C5.44672 15.0194 5.34914 15 5.25059 15C5.15204 15 5.05446 15.0194 4.96342 15.0571C4.87237 15.0948 4.78965 15.1501 4.71996 15.2198L2.46996 17.4698C2.40023 17.5394 2.34491 17.6222 2.30717 17.7132C2.26943 17.8043 2.25 17.9019 2.25 18.0004C2.25 18.099 2.26943 18.1966 2.30717 18.2876C2.34491 18.3787 2.40023 18.4614 2.46996 18.531L4.71996 20.781C4.78965 20.8507 4.87237 20.906 4.96342 20.9437C5.05446 20.9814 5.15204 21.0008 5.25059 21.0008C5.34914 21.0008 5.44672 20.9814 5.53776 20.9437C5.62881 20.906 5.71153 20.8507 5.78121 20.781C5.8509 20.7114 5.90617 20.6286 5.94388 20.5376C5.9816 20.4465 6.00101 20.349 6.00101 20.2504C6.00101 20.1519 5.9816 20.0543 5.94388 19.9632C5.90617 19.8722 5.8509 19.7895 5.78121 19.7198L4.8109 18.7504H15.0006C16.7902 18.7484 18.5059 18.0366 19.7714 16.7712C21.0368 15.5058 21.7486 13.79 21.7506 12.0004C21.7506 11.8015 21.6716 11.6107 21.5309 11.4701C21.3903 11.3294 21.1995 11.2504 21.0006 11.2504Z" fill="#141721"/>
</svg>
