<svg width="38" height="38" viewBox="0 0 38 38" fill="none" xmlns="http://www.w3.org/2000/svg">
<g clip-path="url(#clip0_28_3176)">
<path d="M19 33.25C26.8701 33.25 33.25 26.8701 33.25 19C33.25 11.1299 26.8701 4.75 19 4.75C11.1299 4.75 4.75 11.1299 4.75 19C4.75 26.8701 11.1299 33.25 19 33.25Z" stroke="black" stroke-width="2.375" stroke-linecap="round" stroke-linejoin="round"/>
<path d="M5.56055 14.2499H32.4396M5.56055 23.7499H32.4396M13.0626 18.9999C13.0626 24.5604 15.0412 29.5271 18.151 32.8774C18.259 32.9949 18.3903 33.0887 18.5364 33.1528C18.6826 33.217 18.8405 33.2501 19.0001 33.2501C19.1597 33.2501 19.3176 33.217 19.4637 33.1528C19.6099 33.0887 19.7411 32.9949 19.8491 32.8774C22.9589 29.5271 24.9376 24.5604 24.9376 18.9999C24.9376 13.4395 22.9589 8.47275 19.8491 5.12252C19.7411 5.00502 19.6099 4.91121 19.4637 4.84705C19.3176 4.78289 19.1597 4.74976 19.0001 4.74976C18.8405 4.74976 18.6826 4.78289 18.5364 4.84705C18.3903 4.91121 18.259 5.00502 18.151 5.12252C15.0412 8.47275 13.0626 13.4395 13.0626 18.9999Z" stroke="black" stroke-width="2.375" stroke-linecap="round" stroke-linejoin="round"/>
</g>
<defs>
<clipPath id="clip0_28_3176">
<rect width="38" height="38" fill="white"/>
</clipPath>
</defs>
</svg>
