<svg width="38" height="38" viewBox="0 0 38 38" fill="none" xmlns="http://www.w3.org/2000/svg">
<g clip-path="url(#clip0_28_3142)">
<g clip-path="url(#clip1_28_3142)">
<path d="M9.50022 32.0625C9.18527 32.0625 8.88323 31.9373 8.66053 31.7146C8.43783 31.4919 8.31272 31.1899 8.31272 30.875V24.5382C7.67923 24.8379 6.98024 24.9726 6.28073 24.9297C5.58123 24.8868 4.90394 24.6677 4.31182 24.2928C3.71971 23.9179 3.232 23.3994 2.89406 22.7854C2.55612 22.1715 2.37891 21.482 2.37891 20.7812C2.37891 20.0804 2.55612 19.3909 2.89406 18.777C3.232 18.163 3.71971 17.6445 4.31182 17.2696C4.90394 16.8947 5.58123 16.6756 6.28073 16.6327C6.98024 16.5898 7.67923 16.7245 8.31272 17.0243V10.6875C8.31272 10.3725 8.43783 10.0705 8.66053 9.84776C8.88323 9.62506 9.18527 9.49995 9.50022 9.49995H16.4308C16.1307 8.86646 15.9957 8.16736 16.0384 7.4677C16.0811 6.76804 16.3001 6.09054 16.6749 5.49822C17.0498 4.90591 17.5683 4.41802 18.1824 4.07994C18.7964 3.74186 19.486 3.56458 20.187 3.56458C20.8879 3.56458 21.5775 3.74186 22.1916 4.07994C22.8056 4.41802 23.3242 4.90591 23.699 5.49822C24.0739 6.09054 24.2928 6.76804 24.3355 7.4677C24.3782 8.16736 24.2432 8.86646 23.9432 9.49995H30.8752C31.1902 9.49995 31.4922 9.62506 31.7149 9.84776C31.9376 10.0705 32.0627 10.3725 32.0627 10.6875V17.0243C31.4292 16.7245 30.7302 16.5898 30.0307 16.6327C29.3312 16.6756 28.6539 16.8947 28.0618 17.2696C27.4697 17.6445 26.982 18.163 26.6441 18.777C26.3061 19.3909 26.1289 20.0804 26.1289 20.7812C26.1289 21.482 26.3061 22.1715 26.6441 22.7854C26.982 23.3994 27.4697 23.9179 28.0618 24.2928C28.6539 24.6677 29.3312 24.8868 30.0307 24.9297C30.7302 24.9726 31.4292 24.8379 32.0627 24.5382V30.875C32.0627 31.1899 31.9376 31.4919 31.7149 31.7146C31.4922 31.9373 31.1902 32.0625 30.8752 32.0625H9.50022Z" stroke="black" stroke-width="2.375" stroke-linecap="round" stroke-linejoin="round"/>
</g>
</g>
<defs>
<clipPath id="clip0_28_3142">
<rect width="38" height="38" fill="white"/>
</clipPath>
<clipPath id="clip1_28_3142">
<rect width="38" height="38" fill="white"/>
</clipPath>
</defs>
</svg>
