<svg width="56" height="56" viewBox="0 0 56 56" fill="none" xmlns="http://www.w3.org/2000/svg">
<rect width="56" height="56" rx="28" fill="#F7F7F7"/>
<path d="M39.375 28C39.375 34.1939 34.1928 39.375 28 39.375C26.8301 39.3756 25.6672 39.1952 24.5525 38.8402C24.4807 38.8175 24.416 38.7768 24.3645 38.7218C24.3131 38.6669 24.2767 38.5996 24.2589 38.5264C24.2411 38.4533 24.2424 38.3768 24.2628 38.3043C24.2832 38.2319 24.322 38.1659 24.3753 38.1128L38.1128 24.3742C38.1659 24.3209 38.2319 24.2821 38.3043 24.2617C38.3768 24.2413 38.4533 24.24 38.5264 24.2578C38.5996 24.2756 38.6669 24.312 38.7218 24.3634C38.7768 24.4149 38.8175 24.4796 38.8402 24.5514C39.1953 25.6665 39.3757 26.8298 39.375 28ZM37.6075 21.9177C37.4026 21.5945 37.1814 21.2821 36.9447 20.9814C36.9063 20.9325 36.8578 20.8924 36.8027 20.8636C36.7475 20.8349 36.6868 20.8183 36.6247 20.8149C36.5626 20.8115 36.5005 20.8214 36.4425 20.8438C36.3845 20.8663 36.332 20.9009 36.2884 20.9453L20.9453 36.2928C20.9009 36.3364 20.8663 36.3889 20.8438 36.4469C20.8214 36.5049 20.8115 36.567 20.8149 36.6291C20.8183 36.6912 20.8349 36.7519 20.8636 36.807C20.8924 36.8622 20.9325 36.9106 20.9814 36.9491C21.2821 37.1857 21.5945 37.407 21.9177 37.6119C22.0018 37.6661 22.102 37.6898 22.2015 37.679C22.3011 37.6683 22.3939 37.6237 22.4645 37.5528L37.5484 22.4645C37.6194 22.3939 37.6639 22.3011 37.6747 22.2015C37.6854 22.102 37.6617 22.0018 37.6075 21.9177ZM35.0186 19.0553C34.718 18.8186 34.4055 18.5974 34.0823 18.3925C33.9982 18.3383 33.898 18.3146 33.7985 18.3253C33.6989 18.3361 33.6061 18.3806 33.5355 18.4516L18.4516 33.5366C18.3806 33.6072 18.3361 33.7 18.3253 33.7996C18.3146 33.8991 18.3383 33.9993 18.3925 34.0834C18.5974 34.4066 18.8186 34.719 19.0553 35.0197C19.0937 35.0686 19.1422 35.1087 19.1973 35.1374C19.2525 35.1662 19.3132 35.1828 19.3753 35.1862C19.4374 35.1896 19.4995 35.1797 19.5575 35.1573C19.6155 35.1348 19.668 35.1002 19.7116 35.0558L35.0547 19.7072C35.0983 19.6637 35.1323 19.6114 35.1544 19.5539C35.1764 19.4963 35.186 19.4347 35.1826 19.3732C35.1792 19.3116 35.1629 19.2515 35.1346 19.1967C35.1063 19.1419 35.0668 19.0937 35.0186 19.0553ZM31.4486 17.1598C30.3336 16.8047 29.1702 16.6243 28 16.625C21.8072 16.625 16.625 21.8061 16.625 28C16.6243 29.1702 16.8047 30.3335 17.1598 31.4486C17.1825 31.5204 17.2232 31.5851 17.2782 31.6366C17.3331 31.688 17.4004 31.7244 17.4736 31.7422C17.5467 31.76 17.6232 31.7587 17.6957 31.7383C17.7681 31.7179 17.8341 31.6791 17.8872 31.6258L31.6258 17.8872C31.6791 17.8341 31.7179 17.7681 31.7383 17.6957C31.7587 17.6232 31.76 17.5467 31.7422 17.4736C31.7244 17.4004 31.688 17.3331 31.6366 17.2782C31.5851 17.2232 31.5204 17.1825 31.4486 17.1598Z" fill="#141721"/>
</svg>
