<svg width="38" height="37" viewBox="0 0 38 37" fill="none" xmlns="http://www.w3.org/2000/svg">
<g clip-path="url(#clip0_28_3163)">
<path d="M32.0625 10.875H5.9375C5.28166 10.875 4.75 11.4067 4.75 12.0625V16.8125C4.75 17.4683 5.28166 18 5.9375 18H32.0625C32.7183 18 33.25 17.4683 33.25 16.8125V12.0625C33.25 11.4067 32.7183 10.875 32.0625 10.875Z" stroke="black" stroke-width="2.375" stroke-linecap="round" stroke-linejoin="round"/>
<path d="M30.875 18V28.6875C30.875 29.0025 30.7499 29.3045 30.5272 29.5272C30.3045 29.7499 30.0024 29.875 29.6875 29.875H8.3125C7.99756 29.875 7.69551 29.7499 7.47281 29.5272C7.25011 29.3045 7.125 29.0025 7.125 28.6875V18M19 10.875V29.875M19 10.875C19 10.875 23.7322 10.875 26.2423 8.65293C27.7103 7.35262 27.6287 5.01918 26.2423 3.63277C24.8559 2.24637 22.5224 2.16473 21.2266 3.63277C19 6.14285 19 10.875 19 10.875ZM19 10.875C19 10.875 14.2678 10.875 11.7577 8.65293C10.2897 7.35262 10.3713 5.01918 11.7577 3.63277C13.1441 2.24637 15.4776 2.16473 16.7734 3.63277C19 6.14285 19 10.875 19 10.875Z" stroke="black" stroke-width="2.375" stroke-linecap="round" stroke-linejoin="round"/>
</g>
<defs>
<clipPath id="clip0_28_3163">
<rect width="38" height="38" fill="white" transform="translate(0 -1)"/>
</clipPath>
</defs>
</svg>
