<svg width="38" height="38" viewBox="0 0 38 38" fill="none" xmlns="http://www.w3.org/2000/svg">
<g clip-path="url(#clip0_28_3170)">
<path d="M15.961 31.3529C15.8627 31.5694 15.7017 31.7513 15.4988 31.8752C15.296 31.9991 15.0606 32.0593 14.8231 32.048C14.5857 32.0366 14.3571 31.9543 14.167 31.8116C13.9769 31.6689 13.8339 31.4724 13.7567 31.2475L5.9979 7.48715C5.93437 7.28083 5.92828 7.06109 5.9803 6.85156C6.03232 6.64204 6.14047 6.45066 6.29312 6.29801C6.44578 6.14535 6.63716 6.0372 6.84668 5.98518C7.05621 5.93316 7.27595 5.93925 7.48227 6.00278L31.2471 13.7572C31.4719 13.8344 31.6684 13.9773 31.8111 14.1674C31.9538 14.3575 32.0362 14.5861 32.0475 14.8236C32.0589 15.061 31.9987 15.2964 31.8748 15.4993C31.7509 15.7021 31.5689 15.8631 31.3525 15.9615L24.707 18.8515C24.5295 18.9289 24.3736 19.0485 24.2529 19.1999C24.1323 19.3513 24.0504 19.5299 24.0146 19.7202C23.9787 19.9104 23.9899 20.1066 24.0472 20.2915C24.1045 20.4764 24.2061 20.6446 24.3433 20.7812L31.7162 28.1541C31.9387 28.3768 32.0637 28.6787 32.0637 28.9935C32.0637 29.3083 31.9387 29.6103 31.7162 29.8329L29.8355 31.7151C29.6128 31.9377 29.3109 32.0627 28.9961 32.0627C28.6813 32.0627 28.3793 31.9377 28.1566 31.7151L20.7808 24.3437C20.644 24.2066 20.4758 24.1051 20.2908 24.0479C20.1058 23.9907 19.9096 23.9796 19.7193 24.0156C19.529 24.0516 19.3505 24.1336 19.1991 24.2544C19.0478 24.3753 18.9283 24.5313 18.8511 24.7089L15.961 31.3529Z" stroke="black" stroke-width="2.375" stroke-linecap="round" stroke-linejoin="round"/>
</g>
<defs>
<clipPath id="clip0_28_3170">
<rect width="38" height="38" fill="white"/>
</clipPath>
</defs>
</svg>
