<svg width="38" height="38" viewBox="0 0 38 38" fill="none" xmlns="http://www.w3.org/2000/svg">
<g clip-path="url(#clip0_28_3155)">
<g clip-path="url(#clip1_28_3155)">
<path d="M4.85352 11.4178L18.9996 19.1603L33.1457 11.4178" stroke="black" stroke-width="2.375" stroke-linecap="round" stroke-linejoin="round"/>
<path d="M19 19.1618V34.4375M19.57 3.71093L32.6325 10.8626C32.819 10.9647 32.9747 11.115 33.0833 11.2977C33.192 11.4805 33.2495 11.6891 33.25 11.9017V26.0983C33.2495 26.3109 33.192 26.5195 33.0833 26.7022C32.9747 26.885 32.819 27.0353 32.6325 27.1373L19.57 34.2891C19.3952 34.3847 19.1992 34.4348 19 34.4348C18.8008 34.4348 18.6048 34.3847 18.43 34.2891L5.3675 27.1373C5.18098 27.0353 5.02528 26.885 4.91666 26.7022C4.80804 26.5195 4.75048 26.3109 4.75 26.0983V11.9017C4.75048 11.6891 4.80804 11.4805 4.91666 11.2977C5.02528 11.115 5.18098 10.9647 5.3675 10.8626L18.43 3.71093C18.6048 3.6153 18.8008 3.56519 19 3.56519C19.1992 3.56519 19.3952 3.6153 19.57 3.71093Z" stroke="black" stroke-width="2.375" stroke-linecap="round" stroke-linejoin="round"/>
</g>
</g>
<defs>
<clipPath id="clip0_28_3155">
<rect width="38" height="38" fill="white"/>
</clipPath>
<clipPath id="clip1_28_3155">
<rect width="38" height="38" fill="white"/>
</clipPath>
</defs>
</svg>
