<svg width="56" height="56" viewBox="0 0 56 56" fill="none" xmlns="http://www.w3.org/2000/svg">
<rect width="56" height="56" rx="28" fill="#F7F7F7"/>
<path d="M23.0066 21.6198C22.9253 21.5385 22.8607 21.442 22.8167 21.3358C22.7727 21.2295 22.75 21.1157 22.75 21.0007C22.75 20.8857 22.7727 20.7718 22.8167 20.6656C22.8607 20.5594 22.9253 20.4629 23.0066 20.3816L27.3816 16.0066C27.4629 15.9253 27.5594 15.8607 27.6656 15.8167C27.7718 15.7727 27.8857 15.75 28.0007 15.75C28.1157 15.75 28.2295 15.7727 28.3358 15.8167C28.442 15.8607 28.5385 15.9253 28.6198 16.0066L32.9948 20.3816C33.0761 20.4629 33.1406 20.5594 33.1847 20.6656C33.2287 20.7718 33.2514 20.8857 33.2514 21.0007C33.2514 21.1157 33.2287 21.2295 33.1847 21.3358C33.1406 21.442 33.0761 21.5385 32.9948 21.6198L28.6198 25.9948C28.5385 26.0761 28.442 26.1406 28.3358 26.1847C28.2295 26.2287 28.1157 26.2514 28.0007 26.2514C27.8857 26.2514 27.7718 26.2287 27.6656 26.1847C27.5594 26.1406 27.4629 26.0761 27.3816 25.9948L23.0066 21.6198ZM28.6198 30.0066C28.5385 29.9253 28.442 29.8607 28.3358 29.8167C28.2295 29.7727 28.1157 29.75 28.0007 29.75C27.8857 29.75 27.7718 29.7727 27.6656 29.8167C27.5594 29.8607 27.4629 29.9253 27.3816 30.0066L23.0066 34.3816C22.9253 34.4629 22.8607 34.5594 22.8167 34.6656C22.7727 34.7718 22.75 34.8857 22.75 35.0007C22.75 35.1157 22.7727 35.2295 22.8167 35.3358C22.8607 35.442 22.9253 35.5385 23.0066 35.6198L27.3816 39.9948C27.4629 40.0761 27.5594 40.1406 27.6656 40.1847C27.7718 40.2287 27.8857 40.2514 28.0007 40.2514C28.1157 40.2514 28.2295 40.2287 28.3358 40.1847C28.442 40.1406 28.5385 40.0761 28.6198 39.9948L32.9948 35.6198C33.0761 35.5385 33.1406 35.442 33.1847 35.3358C33.2287 35.2295 33.2514 35.1157 33.2514 35.0007C33.2514 34.8857 33.2287 34.7718 33.1847 34.6656C33.1406 34.5594 33.0761 34.4629 32.9948 34.3816L28.6198 30.0066ZM39.9948 27.3816L35.6198 23.0066C35.5385 22.9253 35.442 22.8607 35.3358 22.8167C35.2295 22.7727 35.1157 22.75 35.0007 22.75C34.8857 22.75 34.7718 22.7727 34.6656 22.8167C34.5594 22.8607 34.4629 22.9253 34.3816 23.0066L30.0066 27.3816C29.9253 27.4629 29.8607 27.5594 29.8167 27.6656C29.7727 27.7718 29.75 27.8857 29.75 28.0007C29.75 28.1157 29.7727 28.2295 29.8167 28.3358C29.8607 28.442 29.9253 28.5385 30.0066 28.6198L34.3816 32.9948C34.4629 33.0761 34.5594 33.1406 34.6656 33.1847C34.7718 33.2287 34.8857 33.2514 35.0007 33.2514C35.1157 33.2514 35.2295 33.2287 35.3358 33.1847C35.442 33.1406 35.5385 33.0761 35.6198 32.9948L39.9948 28.6198C40.0761 28.5385 40.1406 28.442 40.1847 28.3358C40.2287 28.2295 40.2514 28.1157 40.2514 28.0007C40.2514 27.8857 40.2287 27.7718 40.1847 27.6656C40.1406 27.5594 40.0761 27.4629 39.9948 27.3816ZM25.9948 27.3816L21.6198 23.0066C21.5385 22.9253 21.442 22.8607 21.3358 22.8167C21.2295 22.7727 21.1157 22.75 21.0007 22.75C20.8857 22.75 20.7718 22.7727 20.6656 22.8167C20.5594 22.8607 20.4629 22.9253 20.3816 23.0066L16.0066 27.3816C15.9253 27.4629 15.8607 27.5594 15.8167 27.6656C15.7727 27.7718 15.75 27.8857 15.75 28.0007C15.75 28.1157 15.7727 28.2295 15.8167 28.3358C15.8607 28.442 15.9253 28.5385 16.0066 28.6198L20.3816 32.9948C20.4629 33.0761 20.5594 33.1406 20.6656 33.1847C20.7718 33.2287 20.8857 33.2514 21.0007 33.2514C21.1157 33.2514 21.2295 33.2287 21.3358 33.1847C21.442 33.1406 21.5385 33.0761 21.6198 32.9948L25.9948 28.6198C26.0761 28.5385 26.1406 28.442 26.1847 28.3358C26.2287 28.2295 26.2514 28.1157 26.2514 28.0007C26.2514 27.8857 26.2287 27.7718 26.1847 27.6656C26.1406 27.5594 26.0761 27.4629 25.9948 27.3816Z" fill="#141721"/>
</svg>
