<svg width="14" height="14" viewBox="0 0 14 14" fill="none" xmlns="http://www.w3.org/2000/svg">
<path d="M10.5 5.25C10.5 6.80914 9.1618 8.09977 7.4375 8.28844V8.75C7.4375 8.86603 7.39141 8.97731 7.30936 9.05936C7.22731 9.14141 7.11603 9.1875 7 9.1875C6.88397 9.1875 6.77269 9.14141 6.69064 9.05936C6.60859 8.97731 6.5625 8.86603 6.5625 8.75V7.875C6.5625 7.75897 6.60859 7.64769 6.69064 7.56564C6.77269 7.48359 6.88397 7.4375 7 7.4375C8.44758 7.4375 9.625 6.45641 9.625 5.25C9.625 4.04359 8.44758 3.0625 7 3.0625C5.55242 3.0625 4.375 4.04359 4.375 5.25C4.375 5.36603 4.32891 5.47731 4.24686 5.55936C4.16481 5.64141 4.05353 5.6875 3.9375 5.6875C3.82147 5.6875 3.71019 5.64141 3.62814 5.55936C3.54609 5.47731 3.5 5.36603 3.5 5.25C3.5 3.56125 5.07008 2.1875 7 2.1875C8.92992 2.1875 10.5 3.56125 10.5 5.25ZM7 10.5C6.82694 10.5 6.65777 10.5513 6.51388 10.6475C6.36998 10.7436 6.25783 10.8803 6.19161 11.0402C6.12538 11.2 6.10805 11.376 6.14181 11.5457C6.17557 11.7154 6.25891 11.8713 6.38128 11.9937C6.50365 12.1161 6.65956 12.1994 6.8293 12.2332C6.99903 12.2669 7.17496 12.2496 7.33485 12.1834C7.49473 12.1172 7.63139 12.005 7.72754 11.8611C7.82368 11.7172 7.875 11.5481 7.875 11.375C7.875 11.1429 7.78281 10.9204 7.61872 10.7563C7.45462 10.5922 7.23206 10.5 7 10.5Z" fill="#141721"/>
</svg>
