<svg width="38" height="38" viewBox="0 0 38 38" fill="none" xmlns="http://www.w3.org/2000/svg">
<g clip-path="url(#clip0_28_3149)">
<path d="M35.625 28.5V14.25C35.625 12.9383 34.5617 11.875 33.25 11.875H26.125C24.8133 11.875 23.75 12.9383 23.75 14.25V28.5C23.75 29.8117 24.8133 30.875 26.125 30.875H33.25C34.5617 30.875 35.625 29.8117 35.625 28.5Z" stroke="black" stroke-width="2.375" stroke-linecap="round" stroke-linejoin="round"/>
<path d="M19 30.875H13.0625M23.75 26.125H5.9375C5.30761 26.125 4.70352 25.8748 4.25812 25.4294C3.81272 24.984 3.5625 24.3799 3.5625 23.75V9.5C3.5625 8.87011 3.81272 8.26602 4.25812 7.82062C4.70352 7.37522 5.30761 7.125 5.9375 7.125H27.3125C27.9424 7.125 28.5465 7.37522 28.9919 7.82062C29.4373 8.26602 29.6875 8.87011 29.6875 9.5V11.875M28.5 16.625H30.875" stroke="black" stroke-width="2.375" stroke-linecap="round" stroke-linejoin="round"/>
</g>
<defs>
<clipPath id="clip0_28_3149">
<rect width="38" height="38" fill="white"/>
</clipPath>
</defs>
</svg>
