<svg width="48" height="48" viewBox="0 0 48 48" fill="none" xmlns="http://www.w3.org/2000/svg">
<path d="M13.001 34.999V28.999M23.0021 34.999V16.999M32.9998 34.999V27.0002" stroke="#919191" stroke-opacity="0.5" stroke-width="3.01714" stroke-miterlimit="10" stroke-linecap="round"/>
<path d="M43.001 10.999C43.001 14.311 40.3164 16.999 37.001 16.999C33.6855 16.999 31.001 14.311 31.001 10.999C31.001 7.68702 33.6855 4.99902 37.001 4.99902C40.3164 4.99902 43.001 7.68702 43.001 10.999Z" stroke="#919191" stroke-opacity="0.5" stroke-width="3.01714" stroke-miterlimit="10"/>
<path d="M42.991 21.9979C42.991 21.9979 42.9979 22.6767 42.9979 24.0002C42.9979 32.9556 42.9979 37.4333 40.2173 40.2173C37.4333 42.9979 32.9556 42.9979 24.0002 42.9979C15.0413 42.9979 10.5636 42.9979 7.78302 40.2173C4.99902 37.4333 4.99902 32.9556 4.99902 24.0002C4.99902 15.0413 4.99902 10.5636 7.78302 7.78302C10.5636 4.99902 15.0413 4.99902 24.0002 4.99902H25.999" stroke="#919191" stroke-opacity="0.5" stroke-width="3.01714" stroke-linecap="round" stroke-linejoin="round"/>
</svg>
