<svg width="48" height="48" viewBox="0 0 48 48" fill="none" xmlns="http://www.w3.org/2000/svg">
<g clip-path="url(#clip0_28_7113)">
<path d="M10.001 32.0021L20.0021 26.0021M28.001 22.001L38.0021 16.001M23.9998 10.001V20.0021M23.9998 28.001V38.0021M10.001 16.001L20.0021 22.001M28.001 26.0021L38.0021 32.0021" stroke="#919191" stroke-opacity="0.5" stroke-width="2.50286" stroke-linejoin="round"/>
<path d="M41.0021 17.9998V29.0021M26.9998 41.0021L38.0021 35.0021M8.99983 35.0021L20.9998 41.0021M7.00098 29.9998V17.9998M8.99983 13.001L20.9998 7.00098M38.9998 13.001L26.9998 7.00098" stroke="#919191" stroke-opacity="0.5" stroke-width="2.50286" stroke-linejoin="round"/>
<path d="M24 10.001C25.656 10.001 27 8.65698 27 7.00098C27 5.34498 25.656 4.00098 24 4.00098C22.344 4.00098 21 5.34498 21 7.00098C21 8.65698 22.344 10.001 24 10.001Z" stroke="#919191" stroke-opacity="0.5" stroke-width="2.50286" stroke-linejoin="round"/>
<path d="M24 43.999C25.656 43.999 27 42.655 27 40.999C27 39.343 25.656 37.999 24 37.999C22.344 37.999 21 39.343 21 40.999C21 42.655 22.344 43.999 24 43.999Z" stroke="#919191" stroke-opacity="0.5" stroke-width="2.50286" stroke-linejoin="round"/>
<path d="M7.00098 18C8.65698 18 10.001 16.656 10.001 15C10.001 13.344 8.65698 12 7.00098 12C5.34498 12 4.00098 13.344 4.00098 15C4.00098 16.656 5.34498 18 7.00098 18Z" stroke="#919191" stroke-opacity="0.5" stroke-width="2.50286" stroke-linejoin="round"/>
<path d="M40.999 18C42.655 18 43.999 16.656 43.999 15C43.999 13.344 42.655 12 40.999 12C39.343 12 37.999 13.344 37.999 15C37.999 16.656 39.343 18 40.999 18Z" stroke="#919191" stroke-opacity="0.5" stroke-width="2.50286" stroke-linejoin="round"/>
<path d="M40.999 36C42.655 36 43.999 34.656 43.999 33C43.999 31.344 42.655 30 40.999 30C39.343 30 37.999 31.344 37.999 33C37.999 34.656 39.343 36 40.999 36Z" stroke="#919191" stroke-opacity="0.5" stroke-width="2.50286" stroke-linejoin="round"/>
<path d="M7.00098 36C8.65698 36 10.001 34.656 10.001 33C10.001 31.344 8.65698 30 7.00098 30C5.34498 30 4.00098 31.344 4.00098 33C4.00098 34.656 5.34498 36 7.00098 36Z" stroke="#919191" stroke-opacity="0.5" stroke-width="2.50286" stroke-linejoin="round"/>
<path d="M24.0002 19.502L27.9979 21.7511V26.2528L24.0002 28.502L19.999 26.2528V21.7511L24.0002 19.502Z" stroke="#919191" stroke-opacity="0.5" stroke-width="2.50286" stroke-linejoin="round"/>
</g>
<defs>
<clipPath id="clip0_28_7113">
<rect width="48" height="48" fill="white"/>
</clipPath>
</defs>
</svg>
