<svg width="48" height="48" viewBox="0 0 48 48" fill="none" xmlns="http://www.w3.org/2000/svg">
<g clip-path="url(#clip0_28_7130)">
<path d="M9.69669 8.83559C10.7767 9.53501 11.4795 10.4813 11.771 11.743C11.8121 11.9796 11.819 12.1956 11.8224 12.4322C11.8224 12.5247 11.8224 12.6173 11.8258 12.7133C11.8258 12.8162 11.8258 12.9156 11.8258 13.0219C11.8258 13.1282 11.8258 13.2344 11.8293 13.3442C11.8293 13.639 11.8327 13.9304 11.8327 14.2219C11.8361 14.5304 11.8361 14.8356 11.8395 15.1407C11.843 15.7202 11.8464 16.2996 11.8498 16.879C11.8567 17.5407 11.8601 18.2024 11.8635 18.8607C11.8738 20.2184 11.8807 21.5762 11.891 22.9339C11.9561 22.8996 12.0213 22.8653 12.0898 22.831C12.1755 22.7864 12.2613 22.7419 12.3504 22.6973C12.4361 22.6527 12.5218 22.6116 12.611 22.567C13.6807 22.063 14.8704 22.0767 15.9813 22.4436C16.8898 22.7967 17.5173 23.4173 18.203 24.0927C18.419 24.3053 18.6418 24.5076 18.8681 24.7133C18.9435 24.7853 19.0224 24.8573 19.1047 24.9293C19.1801 25.0013 19.259 25.0699 19.3378 25.1419C19.499 25.2893 19.6601 25.4402 19.8247 25.5876C19.8624 25.6253 19.9035 25.663 19.9447 25.7007C20.2944 26.0196 20.6407 26.3384 20.9835 26.6573C21.2475 26.9007 21.5115 27.1407 21.7755 27.3807C21.971 27.5624 22.1698 27.7442 22.3653 27.9259C22.4235 27.9773 22.4818 28.0287 22.5401 28.0836C22.9104 28.4299 23.2121 28.8173 23.5104 29.2253C23.5515 29.2802 23.5927 29.335 23.6338 29.3899C23.9218 29.7876 23.9218 29.7876 23.9218 29.9693C23.9733 29.9693 24.0281 29.9693 24.083 29.9693C24.107 29.911 24.1275 29.8493 24.1515 29.7876C24.611 28.7213 25.7424 27.7476 26.603 27.0002C26.9424 26.7053 27.2681 26.4002 27.5938 26.095C28.0121 25.7007 28.4338 25.3099 28.8624 24.9259C29.0853 24.7236 29.3047 24.5179 29.5241 24.3122C30.8098 23.1019 31.979 22.1419 33.827 22.183C34.6395 22.231 35.435 22.4779 36.1138 22.9339C36.1138 22.8482 36.1138 22.8482 36.1138 22.7659C36.1207 21.4047 36.1241 20.047 36.1344 18.6893C36.1378 18.0344 36.1413 17.3762 36.1413 16.7213C36.1447 16.1487 36.1481 15.5762 36.1515 15.0036C36.1515 14.6984 36.155 14.3967 36.155 14.0916C36.155 13.7556 36.1584 13.4162 36.1584 13.0767C36.1584 12.9773 36.1584 12.8779 36.1584 12.775C36.1721 11.5064 36.5801 10.3784 37.4647 9.45273C38.5824 8.43787 39.779 8.21844 41.2258 8.26987C41.6578 8.30073 42.0281 8.42759 42.4155 8.61273C42.4773 8.64016 42.5424 8.67101 42.6075 8.69844C43.7835 9.28473 44.435 10.2756 44.8704 11.4756C44.9355 11.7053 44.963 11.911 44.963 12.151C44.963 12.2196 44.963 12.2882 44.963 12.3602C44.963 12.4733 44.963 12.4733 44.963 12.5899C44.963 12.6687 44.963 12.751 44.9664 12.8333C44.9664 13.1042 44.9664 13.375 44.9664 13.6459C44.9664 13.8379 44.9664 14.0333 44.9664 14.2253C44.9698 14.8082 44.9698 15.391 44.9698 15.9739C44.9698 16.2516 44.9733 16.5259 44.9733 16.8002C44.9733 17.7156 44.9733 18.631 44.9767 19.5464C44.9767 19.7864 44.9767 20.023 44.9767 20.2596C44.9767 20.3179 44.9767 20.3796 44.9767 20.4379C44.9767 21.3944 44.9801 22.3476 44.9801 23.3007C44.9835 24.2813 44.987 25.2619 44.987 26.2424C44.987 26.7944 44.987 27.343 44.9904 27.8916C44.9904 28.4127 44.9904 28.9304 44.9904 29.4482C44.9904 29.6367 44.9904 29.8253 44.9904 30.0173C45.0007 31.5704 44.8464 33.0824 44.3321 34.5602C44.3047 34.639 44.2773 34.7213 44.2498 34.8036C43.6773 36.4082 42.7961 37.8447 41.6304 39.0859C41.4281 39.3053 41.2258 39.5282 41.0235 39.751C40.5298 40.2927 40.0121 40.8139 39.491 41.335C39.395 41.4344 39.299 41.5304 39.203 41.6264C39.0007 41.8287 38.8018 42.031 38.5995 42.2299C38.3424 42.487 38.0853 42.7442 37.8281 43.0047C37.6293 43.2036 37.4304 43.4024 37.2315 43.6013C37.1355 43.6973 37.043 43.7899 36.947 43.8859C36.8167 44.0196 36.683 44.1499 36.5527 44.2836C36.4773 44.359 36.4018 44.4344 36.323 44.5099C35.939 44.8596 35.6613 44.9933 35.1435 44.9762C34.8795 44.9316 34.739 44.8116 34.5573 44.6196C34.3995 44.2973 34.4098 43.9853 34.4784 43.6356C34.6018 43.4573 34.6018 43.4573 34.7733 43.2756C34.8418 43.2036 34.907 43.1316 34.9755 43.0596C35.0544 42.9773 35.1333 42.8984 35.2121 42.8196C35.2567 42.775 35.2978 42.7339 35.3424 42.6893C35.6407 42.3876 35.9424 42.0893 36.2475 41.791C36.4773 41.5613 36.7104 41.3316 36.9401 41.1019C37.3687 40.6802 37.7973 40.255 38.2258 39.8333C38.5275 39.535 38.8258 39.2402 39.1275 38.9419C39.2407 38.8287 39.3538 38.719 39.467 38.6059C40.4955 37.6013 41.3904 36.5042 41.9938 35.1876C42.0315 35.1087 42.0693 35.0299 42.107 34.951C42.9127 33.1647 43.0944 31.4127 43.0944 29.479C43.0944 29.2904 43.0944 29.1019 43.0944 28.9133C43.0978 28.4059 43.0978 27.8984 43.0978 27.391C43.0978 27.0722 43.0978 26.7533 43.0978 26.4344C43.0978 25.3819 43.1013 24.3293 43.1013 23.2767C43.1013 23.2184 43.1013 23.1636 43.1013 23.1053C43.1013 23.0196 43.1013 23.0196 43.1013 22.9339C43.1013 22.0116 43.1013 21.0927 43.1047 20.1739C43.1047 19.2276 43.1081 18.2813 43.1081 17.335C43.1081 16.8036 43.1081 16.2756 43.1081 15.7442C43.1115 15.247 43.1115 14.7464 43.1081 14.2493C43.1081 14.0676 43.1081 13.8824 43.1115 13.7007C43.1115 13.4504 43.1115 13.2002 43.1115 12.9533C43.1115 12.8436 43.1115 12.8436 43.1115 12.7339C43.1047 11.9899 42.851 11.3487 42.3401 10.8002C41.6613 10.2276 40.9035 10.0973 40.043 10.1659C39.5013 10.2962 39.0041 10.5499 38.651 10.9853C38.267 11.6299 38.0647 12.151 38.0647 12.895C38.0647 12.9567 38.0647 13.0184 38.0647 13.0802C38.0647 13.2824 38.0647 13.4882 38.0647 13.6904C38.0647 13.8379 38.0647 13.9819 38.0647 14.1293C38.0613 14.4447 38.0613 14.7567 38.0613 15.0722C38.0613 15.5693 38.0578 16.0699 38.0578 16.567C38.051 17.983 38.0475 19.399 38.0441 20.815C38.0441 21.5967 38.0407 22.3819 38.0373 23.1636C38.0373 23.575 38.0338 23.9899 38.0338 24.4047C38.0338 24.7922 38.0338 25.183 38.0304 25.5704C38.0304 25.7144 38.0304 25.855 38.0304 25.999C38.0338 27.7099 37.6258 28.8619 36.4018 30.0927C36.2373 30.2573 36.0727 30.4253 35.9047 30.5864C35.6818 30.8059 35.4727 31.0322 35.267 31.2653C34.9001 31.6939 34.4955 32.0847 34.0944 32.479C33.7584 32.8116 33.4395 33.1476 33.131 33.5076C32.9664 33.6962 32.7881 33.8779 32.6098 34.0562C32.5481 34.1179 32.4864 34.1796 32.4247 34.2447C32.1333 34.5156 31.8727 34.5019 31.4887 34.5019C31.2864 34.471 31.2864 34.471 31.0361 34.279C30.7858 33.9396 30.7584 33.7476 30.7927 33.3259C31.0087 32.887 31.3687 32.5784 31.715 32.2424C31.8898 32.0676 32.0475 31.8927 32.2087 31.7076C32.5927 31.2619 33.0178 30.8539 33.4395 30.439C33.7824 30.0996 34.1081 29.7533 34.4235 29.3864C34.595 29.1944 34.7801 29.0162 34.9653 28.8413C35.6441 28.1967 36.0693 27.5967 36.1344 26.6402C36.1173 25.8139 35.7675 25.1967 35.1881 24.631C34.4887 24.175 33.8373 23.9899 33.0144 24.1544C32.2121 24.3807 31.6293 24.9259 31.0704 25.5224C30.8544 25.7384 30.6247 25.9373 30.395 26.1362C30.1207 26.3796 29.8533 26.6299 29.5858 26.8802C29.195 27.2504 28.8007 27.6207 28.3995 27.9876C28.3241 28.0562 28.2453 28.1282 28.1664 28.2036C28.0053 28.3476 27.8441 28.495 27.6795 28.639C26.771 29.4584 26.0098 30.3019 25.3927 31.3613C25.3584 31.4127 25.3275 31.4642 25.2933 31.5156C25.1527 31.7487 25.0567 31.9202 25.0807 32.1944C25.1355 32.3899 25.2007 32.5784 25.2761 32.767C25.8418 34.2756 25.8384 35.8904 25.835 37.4779C25.835 37.6733 25.835 37.8687 25.835 38.0676C25.835 38.4756 25.835 38.8836 25.835 39.2916C25.8315 39.8127 25.835 40.3339 25.835 40.8584C25.835 41.263 25.835 41.6676 25.835 42.0722C25.835 42.2642 25.835 42.4562 25.835 42.6482C25.835 42.919 25.835 43.1864 25.835 43.4539C25.835 43.5739 25.835 43.5739 25.835 43.6939C25.8315 44.191 25.763 44.4722 25.4235 44.8493C25.1184 45.0036 24.827 45.0002 24.4944 44.9453C24.227 44.7979 24.1173 44.695 23.9938 44.4173C23.8944 44.0264 23.8978 43.6527 23.8978 43.2516C23.8978 43.1659 23.8978 43.0767 23.8978 42.9876C23.8944 42.799 23.8944 42.607 23.8944 42.4184C23.8944 42.1167 23.8944 41.8184 23.891 41.5167C23.8875 40.6596 23.8841 39.8059 23.8841 38.9522C23.8807 38.4276 23.8807 37.903 23.8773 37.3784C23.8738 37.1796 23.8738 36.9807 23.8738 36.7819C23.8738 35.4207 23.8293 34.1453 23.3287 32.8596C23.3013 32.7944 23.2773 32.7293 23.2533 32.6642C22.5641 30.9053 21.371 29.4893 19.9481 28.2653C19.6738 28.0253 19.4098 27.775 19.1424 27.5247C18.7378 27.1476 18.3333 26.7739 17.9184 26.4036C17.6921 26.1979 17.4693 25.9887 17.2498 25.7796C16.2521 24.7647 16.2521 24.7647 15.0007 24.1613C14.9458 24.1476 14.8875 24.1339 14.8293 24.1202C14.1675 24.0036 13.475 24.1579 12.923 24.5453C12.2544 25.111 11.9527 25.7419 11.8533 26.6059C11.9115 27.6104 12.4327 28.2379 13.1184 28.9064C13.2487 29.0367 13.379 29.167 13.5058 29.2973C13.5881 29.3727 13.5881 29.3727 13.6704 29.4516C13.8247 29.6127 13.9687 29.7739 14.1127 29.9453C14.459 30.3396 14.8293 30.7064 15.2064 31.0767C15.6761 31.5396 16.1287 32.0059 16.5538 32.5064C16.6155 32.575 16.6738 32.6402 16.7321 32.7087C16.7801 32.7602 16.8247 32.8116 16.8727 32.8664C16.9413 32.9453 16.9413 32.9453 17.0133 33.0276C17.2087 33.2573 17.219 33.391 17.195 33.6824C17.1607 33.9533 17.1401 34.0493 16.9687 34.2687C16.6773 34.4813 16.4578 34.5156 16.1013 34.5087C15.7207 34.4367 15.5047 34.1693 15.2441 33.8984C15.1927 33.847 15.1344 33.7922 15.0795 33.7373C14.8155 33.4836 14.5687 33.2196 14.3321 32.9419C13.9995 32.5613 13.643 32.2082 13.283 31.8516C12.8715 31.4504 12.4773 31.0459 12.1035 30.6104C11.9458 30.4322 11.7744 30.2676 11.603 30.0996C10.7287 29.2664 10.043 28.231 9.9984 26.9899C9.9984 26.8802 9.9984 26.767 9.9984 26.6573C9.9984 26.5682 9.9984 26.5682 9.9984 26.4756C9.99497 26.2699 9.9984 26.0676 9.9984 25.8619C9.99497 25.7179 9.99497 25.5704 9.99497 25.4264C9.99497 25.111 9.99497 24.7956 9.99497 24.4802C9.99497 23.983 9.99154 23.4859 9.99154 22.9853C9.99154 22.8173 9.99154 22.6459 9.98812 22.4744C9.98812 22.3887 9.98812 22.303 9.98812 22.2173C9.98469 21.0584 9.98126 19.8962 9.98126 18.7373C9.98126 17.9556 9.97783 17.1739 9.9744 16.3922C9.9744 15.9773 9.9744 15.5659 9.9744 15.151C9.9744 14.7602 9.9744 14.3727 9.97097 13.9819C9.97097 13.8413 9.97097 13.6973 9.97097 13.5567C9.9744 12.5042 9.88869 11.527 9.10697 10.7384C8.43154 10.2104 7.7424 10.087 6.89897 10.1659C6.23383 10.3236 5.68183 10.6904 5.29783 11.2562C5.06469 11.6573 4.92411 12.0002 4.92411 12.4664C4.92411 12.535 4.92411 12.6002 4.92411 12.6687C4.92411 12.7442 4.92411 12.8162 4.92411 12.8916C4.92411 12.967 4.92411 13.0459 4.92411 13.1247C4.92069 13.3887 4.92069 13.6493 4.92069 13.9099C4.92069 14.0984 4.92069 14.2836 4.92069 14.4722C4.92069 14.9796 4.91726 15.4904 4.91726 15.9979C4.91726 16.3167 4.91726 16.6356 4.91726 16.9544C4.91726 17.839 4.91383 18.7202 4.91383 19.6047C4.91383 19.6596 4.91383 19.7179 4.91383 19.7762C4.91383 19.831 4.91383 19.8893 4.91383 19.9476C4.91383 20.0607 4.91383 20.1773 4.91383 20.2904C4.91383 20.3487 4.91383 20.4036 4.91383 20.4653C4.91383 21.3842 4.91383 22.303 4.9104 23.2253C4.9104 24.1716 4.90697 25.1179 4.90697 26.0642C4.90697 26.5922 4.90697 27.1236 4.90697 27.655C4.90354 28.1556 4.90354 28.6562 4.90697 29.1567C4.90697 29.3384 4.90354 29.5202 4.90354 29.7019C4.88983 33.0584 5.9424 35.9384 8.31497 38.3487C8.57554 38.6127 8.83954 38.8733 9.10354 39.1373C9.2784 39.3122 9.45326 39.4836 9.62811 39.6584C9.9984 40.0287 10.3687 40.399 10.739 40.7693C11.171 41.1979 11.603 41.6299 12.035 42.0584C12.2064 42.2299 12.3813 42.4013 12.5527 42.5727C12.659 42.679 12.7618 42.7853 12.8681 42.8882C12.9161 42.9362 12.9641 42.9842 13.0155 43.0322C13.5504 43.5704 13.5504 43.5704 13.5573 44.0367C13.5538 44.3384 13.5367 44.4413 13.3755 44.7053C13.0944 44.9624 12.8784 44.9899 12.5081 44.983C12.2578 44.9384 12.1653 44.863 11.9835 44.6916C11.9287 44.6402 11.8704 44.5887 11.8121 44.5339C11.7573 44.4824 11.7024 44.4276 11.6441 44.3727C11.5961 44.3282 11.5481 44.2836 11.5001 44.2356C11.3561 44.095 11.2121 43.9544 11.0681 43.8139C11.0167 43.7624 10.9618 43.7076 10.907 43.6527C10.7321 43.4813 10.5573 43.3064 10.3824 43.135C10.3241 43.0733 10.2624 43.015 10.2007 42.9533C9.88183 42.6344 9.55954 42.3156 9.24069 42.0002C8.98011 41.7396 8.71954 41.479 8.45554 41.2184C8.13669 40.903 7.81783 40.5876 7.49897 40.2687C7.37897 40.1487 7.25897 40.0287 7.13554 39.9122C5.14354 37.951 3.75497 35.5956 3.21669 32.8356C3.19611 32.7362 3.19611 32.7362 3.17554 32.6367C3.00411 31.7076 3.02811 30.775 3.02811 29.8356C3.02811 29.6402 3.02811 29.4447 3.02811 29.2493C3.02469 28.7213 3.02469 28.1933 3.02469 27.6653C3.02469 27.3362 3.02469 27.007 3.02469 26.6779C3.02126 25.5842 3.02126 24.4904 3.02126 23.3967C3.02126 23.3384 3.02126 23.2802 3.02126 23.2184C3.02126 23.1602 3.02126 23.1019 3.02126 23.0402C3.02126 22.087 3.02126 21.1339 3.01783 20.1773C3.0144 19.1967 3.0144 18.2127 3.0144 17.2322C3.0144 16.6836 3.0144 16.1316 3.0144 15.583C3.01097 15.0653 3.01097 14.5476 3.01097 14.0299C3.01097 13.8413 3.01097 13.6493 3.01097 13.4607C3.00411 11.9076 3.14469 10.6699 4.26926 9.48701C5.7504 8.09501 7.92754 7.85159 9.69669 8.83559Z" fill="#919191" fill-opacity="0.5" stroke="#919191" stroke-opacity="0.5" stroke-width="0.617143" stroke-miterlimit="10"/>
<path d="M25.1034 3.20848C26.0496 3.80848 26.3411 4.64506 26.6805 5.65648C26.7251 5.78677 26.7696 5.91706 26.8176 6.05077C26.9034 6.30106 26.9891 6.55134 27.0748 6.80163C27.1982 7.16163 27.3285 7.5182 27.4656 7.87134C27.5171 8.03934 27.5171 8.03934 27.5171 8.2862C27.5925 8.2862 27.5925 8.2862 27.6714 8.28277C28.1994 8.27591 28.7239 8.27248 29.2519 8.26906C29.4474 8.26563 29.6428 8.2622 29.8416 8.2622C30.1228 8.25534 30.4074 8.25534 30.6919 8.25534C30.7776 8.25191 30.8634 8.25191 30.9525 8.24848C31.6416 8.24848 32.2279 8.39591 32.8211 8.75248C33.3662 9.32506 33.6165 9.86334 33.6816 10.6485C33.6611 11.2931 33.4485 11.9102 33.0028 12.3765C32.7559 12.5959 32.4988 12.8016 32.2416 13.0039C31.9159 13.2611 31.5936 13.5251 31.2714 13.7891C31.0279 13.9913 30.7811 14.1868 30.5239 14.3719C30.4485 14.4268 30.3731 14.4782 30.2942 14.5365C30.2291 14.5811 30.1639 14.6256 30.0988 14.6702C29.9445 14.8313 29.9445 14.8313 29.9925 15.0816C30.0542 15.4553 30.1742 15.8051 30.2942 16.1616C30.3148 16.2336 30.3388 16.3056 30.3628 16.3776C30.4382 16.6039 30.5136 16.8268 30.5856 17.0531C30.6611 17.2759 30.7365 17.5022 30.8119 17.7285C30.8565 17.8691 30.9045 18.0096 30.9491 18.1468C31.2199 18.9696 31.2954 19.6588 30.9559 20.4782C30.5925 21.1125 30.1056 21.5102 29.3994 21.7056C29.1319 21.7331 29.1319 21.7331 28.8474 21.7365C28.7548 21.7399 28.6622 21.7433 28.5696 21.7433C27.8839 21.6611 27.3216 21.3353 26.7662 20.9445C26.6394 20.8588 26.5125 20.7731 26.3856 20.6873C26.1628 20.5331 25.9399 20.3822 25.7205 20.2279C25.4668 20.0565 25.2096 19.8851 24.9559 19.7102C24.8736 19.6553 24.7948 19.6005 24.7125 19.5422C24.6371 19.4908 24.5582 19.4393 24.4794 19.3879C24.4142 19.3433 24.3456 19.2953 24.2771 19.2473C24.0816 19.1479 24.0816 19.1479 23.8657 19.2302C23.6291 19.3571 23.4234 19.5045 23.2074 19.6656C22.6725 20.0531 22.1274 20.4268 21.5788 20.7902C21.4862 20.8519 21.3902 20.9136 21.2976 20.9753C20.4508 21.5445 19.7582 21.9113 18.7262 21.7571C18.0611 21.6062 17.5434 21.1879 17.1662 20.6256C16.7102 19.7445 16.8645 18.9525 17.1491 18.0439C17.1868 17.9273 17.2245 17.8108 17.2622 17.6908C17.2999 17.5708 17.3376 17.4508 17.3754 17.3308C17.4508 17.0942 17.5228 16.8576 17.5982 16.6245C17.7216 16.2302 17.8382 15.8359 17.9548 15.4416C17.9685 15.3868 17.9856 15.3285 18.0028 15.2702C18.0371 15.1536 18.0714 15.0336 18.1056 14.9136C17.3891 14.2931 16.6656 13.6862 15.9148 13.0999C15.0954 12.4485 14.4645 11.8931 14.3205 10.8165C14.2896 10.2028 14.4885 9.55477 14.8691 9.07134C15.4005 8.53306 16.0074 8.27934 16.7548 8.26563C16.9296 8.26563 17.1011 8.26906 17.2759 8.26906C17.4131 8.26906 17.4131 8.26906 17.5536 8.26906C17.8451 8.27248 18.1365 8.27248 18.4279 8.27591C18.6268 8.27591 18.8256 8.27591 19.0245 8.27934C19.5114 8.27934 19.9948 8.28277 20.4816 8.2862C20.4885 8.22106 20.4954 8.15591 20.5056 8.08734C20.5776 7.72048 20.6976 7.38448 20.8245 7.03477C20.8519 6.96277 20.8759 6.89077 20.9034 6.81534C20.9582 6.66448 21.0131 6.51363 21.0714 6.35934C21.1536 6.12963 21.2394 5.89648 21.3216 5.66677C21.3765 5.51591 21.4314 5.36848 21.4828 5.22106C21.5102 5.15248 21.5342 5.08391 21.5582 5.01191C21.7605 4.46334 22.0142 3.8942 22.4736 3.51363C22.5182 3.47591 22.5594 3.44163 22.6039 3.40048C23.3308 2.93077 24.3079 2.85191 25.1034 3.20848ZM23.5091 5.0942C23.3925 5.29306 23.3925 5.29306 23.3171 5.52963C23.2725 5.66334 23.2725 5.66334 23.2245 5.79706C23.1731 5.94106 23.1731 5.94106 23.1251 6.08848C23.0908 6.18791 23.0565 6.28391 23.0188 6.38677C22.9091 6.7022 22.7994 7.01763 22.6896 7.33306C22.5799 7.64848 22.4702 7.96391 22.3605 8.27934C22.2919 8.47477 22.2234 8.67363 22.1582 8.86906C21.8325 9.78791 21.8325 9.78791 21.4622 10.0039C21.0988 10.0622 20.7422 10.0588 20.3788 10.0553C20.2176 10.0588 20.0531 10.0588 19.8919 10.0588C19.6656 10.0622 19.4428 10.0622 19.2165 10.0622C18.8188 10.0588 18.4245 10.0622 18.0268 10.0656C17.8176 10.0656 17.6085 10.0656 17.3959 10.0656C17.3034 10.0656 17.2074 10.0656 17.1079 10.0656C16.9811 10.0656 16.9811 10.0656 16.8542 10.0656C16.6279 10.0862 16.4942 10.1273 16.3056 10.2508C16.1891 10.4839 16.1959 10.6451 16.2234 10.9056C16.3811 11.1113 16.3811 11.1113 16.6039 11.2896C16.6451 11.3239 16.6828 11.3582 16.7239 11.3925C17.0839 11.7011 17.4576 11.9891 17.8348 12.2805C18.3456 12.6782 18.8428 13.0999 19.3331 13.5216C19.4051 13.5833 19.4736 13.6416 19.5422 13.6999C19.6039 13.7513 19.6622 13.8028 19.7239 13.8542C19.7754 13.8988 19.8234 13.9433 19.8748 13.9879C20.0668 14.1696 20.0736 14.2691 20.0942 14.5365C20.0874 15.0062 19.9331 15.4279 19.7856 15.8702C19.7548 15.9628 19.7274 16.0519 19.6965 16.1445C19.6039 16.4325 19.5114 16.7205 19.4154 17.0051C19.3228 17.2931 19.2302 17.5811 19.1376 17.8691C19.0794 18.0473 19.0211 18.2256 18.9628 18.4039C18.8222 18.8359 18.7159 19.2028 18.7605 19.6622C18.8428 19.8302 18.8428 19.8302 19.0074 19.9056C19.5422 20.0051 19.8954 19.6862 20.3171 19.3982C20.3959 19.3468 20.4714 19.2953 20.5536 19.2405C20.8039 19.0759 21.0508 18.9079 21.2976 18.7399C21.4656 18.6268 21.6336 18.5171 21.8016 18.4039C22.1068 18.2016 22.4154 17.9959 22.7205 17.7868C22.7856 17.7422 22.8508 17.7011 22.9194 17.6531C23.0291 17.5811 23.1388 17.5056 23.2485 17.4302C23.5674 17.2073 23.8519 17.0839 24.2462 17.1251C24.8359 17.3685 25.3674 17.7833 25.8988 18.1433C26.6051 18.6199 27.3148 19.0965 28.0348 19.5525C28.0931 19.5902 28.1514 19.6279 28.2096 19.6691C28.4668 19.8268 28.6314 19.9056 28.9399 19.9022C29.1799 19.8405 29.1799 19.8405 29.3171 19.5799C29.2965 18.9868 29.1319 18.4759 28.9399 17.9205C28.8782 17.7422 28.8199 17.5639 28.7616 17.3891C28.6656 17.1113 28.5731 16.8371 28.4771 16.5593C28.3845 16.2919 28.2919 16.0245 28.2028 15.7571C28.1754 15.6748 28.1445 15.5925 28.1171 15.5068C27.9525 15.0233 27.8599 14.5982 28.0108 14.0976C28.1856 13.8679 28.1856 13.8679 28.4119 13.6828C28.5354 13.5799 28.5354 13.5799 28.6622 13.4736C28.7445 13.4085 28.8268 13.3433 28.9091 13.2782C28.9742 13.2233 29.0394 13.1719 29.1045 13.1171C29.2348 13.0142 29.3616 12.9113 29.4919 12.8085C29.9616 12.4382 30.4245 12.0611 30.8874 11.6805C31.0176 11.5742 31.1514 11.4679 31.2851 11.3616C31.3502 11.3068 31.4188 11.2519 31.4874 11.1971C31.5422 11.1491 31.6005 11.1045 31.6588 11.0565C31.8234 10.8405 31.8028 10.6793 31.7754 10.4119C31.6485 10.2473 31.5525 10.1788 31.3639 10.0862C31.2131 10.0793 31.0622 10.0759 30.9079 10.0759C30.7674 10.0759 30.7674 10.0759 30.6199 10.0759C30.5171 10.0759 30.4142 10.0759 30.3079 10.0759C30.1434 10.0725 29.9822 10.0725 29.8211 10.0725C29.4199 10.0691 29.0222 10.0656 28.6211 10.0656C28.3982 10.0656 28.1719 10.0656 27.9491 10.0622C27.7365 10.0588 27.5274 10.0588 27.3148 10.0622C26.6085 10.0519 26.6085 10.0519 26.2794 9.83591C26.1011 9.55477 25.9811 9.27706 25.8748 8.96506C25.8542 8.90334 25.8302 8.84506 25.8096 8.77991C25.7651 8.65306 25.7171 8.52277 25.6759 8.39248C25.6039 8.19363 25.5354 7.99134 25.4634 7.79248C25.2645 7.23363 25.0725 6.67477 24.8805 6.11591C24.8565 6.04391 24.8291 5.97191 24.8051 5.89991C24.7605 5.77306 24.7159 5.6462 24.6748 5.51934C24.5822 5.25191 24.5102 5.10791 24.2805 4.93306C23.9411 4.78906 23.8005 4.88163 23.5091 5.0942Z" fill="#919191" fill-opacity="0.5" stroke="#919191" stroke-opacity="0.5" stroke-width="0.617143" stroke-miterlimit="10"/>
</g>
<defs>
<clipPath id="clip0_28_7130">
<rect width="48" height="48" fill="white"/>
</clipPath>
</defs>
</svg>
