<svg width="48" height="48" viewBox="0 0 48 48" fill="none" xmlns="http://www.w3.org/2000/svg">
<g clip-path="url(#clip0_28_7141)">
<path d="M34.001 21.6109C34.001 20.9183 34.001 20.572 34.1038 20.2634C34.409 19.3686 35.2044 19.0223 36.0033 18.6589C36.9015 18.2509 37.3507 18.0451 37.793 18.0074C38.3004 17.9697 38.8044 18.076 39.2364 18.3194C39.809 18.6417 40.2067 19.252 40.6181 19.7457C42.5038 22.0394 43.4467 23.1846 43.793 24.4463C44.0707 25.468 44.0707 26.5343 43.793 27.5526C43.289 29.3971 41.6981 30.94 40.5221 32.3697C39.9187 33.1034 39.617 33.4669 39.2364 33.6829C38.8044 33.9229 38.3004 34.0326 37.793 33.9914C37.3507 33.9571 36.9015 33.7514 36.0033 33.3434C35.2044 32.98 34.409 32.6303 34.1038 31.7354C34.001 31.4269 34.001 31.084 34.001 30.3914V21.6109Z" stroke="#919191" stroke-opacity="0.5" stroke-width="3.01714" stroke-miterlimit="10"/>
<path d="M14.0022 21.6105C14.0022 20.7396 13.9782 19.9579 13.272 19.3442C13.0182 19.1213 12.6788 18.967 12 18.6585C11.1017 18.2505 10.6525 18.0447 10.2068 18.0105C8.8731 17.9007 8.15652 18.8127 7.3851 19.7453C5.49938 22.039 4.55652 23.1842 4.21024 24.4459C3.93252 25.4676 3.93252 26.5339 4.21024 27.5522C4.71424 29.3967 6.3051 30.9396 7.4811 32.3727C8.2251 33.2745 8.93138 34.0939 10.2068 33.991C10.6525 33.9567 11.1017 33.751 12 33.343C12.6788 33.0345 13.0182 32.8802 13.272 32.6573C13.9782 32.0436 14.0022 31.2619 14.0022 30.391V21.6105Z" stroke="#919191" stroke-opacity="0.5" stroke-width="3.01714" stroke-miterlimit="10"/>
<path d="M10.001 18C10.001 11.3726 16.2684 6 23.9998 6C31.7313 6 38.0021 11.3726 38.0021 18" stroke="#919191" stroke-opacity="0.5" stroke-width="3.01714" stroke-linecap="square" stroke-linejoin="round"/>
<path d="M37.999 34.001V35.6021C37.999 39.137 34.4162 41.9998 30.0002 41.9998H25.999" stroke="#919191" stroke-opacity="0.5" stroke-width="3.01714" stroke-linecap="round" stroke-linejoin="round"/>
</g>
<defs>
<clipPath id="clip0_28_7141">
<rect width="48" height="48" fill="white"/>
</clipPath>
</defs>
</svg>
