<svg width="21" height="44" viewBox="0 0 21 44" fill="none" xmlns="http://www.w3.org/2000/svg">
<g clip-path="url(#clip0_28_3109)">
<path fill-rule="evenodd" clip-rule="evenodd" d="M14.8169 -0.609443C15.0741 0.419557 14.3244 2.76106 13.4162 3.76696C13.0182 4.20796 13.0109 4.24681 13.3532 4.12291C13.6608 4.01056 13.6923 4.03891 13.5086 4.26151C13.3217 4.48726 13.4393 4.54501 14.1407 4.57126C15.7755 4.63426 18.4877 6.35101 18.0572 7.05241C17.8629 7.36846 16.5294 7.31071 15.4458 6.94006C14.924 6.76156 14.0504 6.21136 13.5054 5.71891C12.9615 5.22541 12.4575 4.86526 12.3851 4.91776C12.3126 4.97026 12.3389 4.90936 12.4439 4.78336C12.5625 4.64056 12.5573 4.35181 12.4302 4.01686C12.0344 2.97316 12.7515 0.383857 13.7259 -0.659843C14.2887 -1.26254 14.6583 -1.24574 14.8179 -0.609443H14.8169ZM20.3861 0.507757C20.6454 0.672607 20.6286 0.778657 20.2674 1.26376C19.6353 2.11741 18.1244 2.95846 16.7972 3.19681C15.7094 3.39211 15.3797 3.47716 14.189 3.87196C13.9653 3.94546 14.0703 3.85306 14.4231 3.66511C14.7759 3.47611 15.1844 3.09811 15.3314 2.82196C15.7346 2.06386 16.9977 1.14616 18.2462 0.705158C19.4873 0.266257 19.9409 0.224257 20.3861 0.507757ZM9.94906 1.86016C10.3817 2.52586 10.3806 4.79491 9.94801 5.98666C9.77371 6.46546 9.65086 6.86656 9.67396 6.87811C9.69706 6.88966 10.493 6.91696 11.4443 6.94006C12.7085 6.96946 13.4319 7.09756 14.1375 7.41781C15.9435 8.23786 15.156 9.00541 12.6591 8.85946C11.4159 8.78806 10.8909 8.65051 10.1244 8.19796L9.81151 8.01421C9.62928 7.90653 9.41459 7.86745 9.20611 7.90403C8.99763 7.94061 8.80906 8.05043 8.67436 8.21371C8.40976 8.53606 7.99816 9.10411 7.76086 9.47581C7.52461 9.84751 7.28416 10.1058 7.22746 10.0481C7.11406 9.93256 8.42026 8.07826 8.89171 7.68346C9.15421 7.46296 9.14896 7.36741 8.84341 6.89806C8.58406 6.49906 8.49586 5.92156 8.49586 4.61536C8.49586 2.03971 9.19831 0.708308 9.94801 1.86016H9.94906ZM6.42106 6.19141C6.75706 6.92221 6.86731 7.55221 6.86836 8.72926C6.86836 9.62911 6.94816 10.2455 7.05631 10.1783C7.15921 10.1153 7.18651 10.2129 7.11616 10.3956C7.01116 10.6686 7.14031 10.6476 7.84381 10.2749C8.94001 9.69526 11.8328 9.61651 12.3651 10.152C12.6665 10.4544 12.6665 10.508 12.3641 10.8114C11.9231 11.2556 10.1549 11.7669 9.06181 11.7669C8.57566 11.7669 7.85956 11.6336 7.47211 11.4698C7.27971 11.3891 7.06405 11.3835 6.86771 11.454C6.67138 11.5246 6.50863 11.6662 6.41161 11.8509L6.36961 11.9307C6.15121 12.3465 5.96746 12.6132 5.96326 12.524C5.95801 12.4337 6.09871 12.0798 6.27511 11.7365C6.57541 11.1506 6.57016 11.0834 6.19636 10.6718C5.23246 9.60916 4.65496 7.19941 5.01616 5.74936C5.23981 4.85266 5.90446 5.06266 6.42211 6.19141H6.42106ZM3.03691 10.2266C3.69631 10.6907 4.65391 12.3549 5.03191 13.6874L5.08021 13.8617C5.11016 13.9676 5.16714 14.0638 5.24556 14.141C5.32398 14.2182 5.42114 14.2737 5.52749 14.302C5.63384 14.3303 5.74572 14.3304 5.85213 14.3023C5.95854 14.2743 6.05582 14.219 6.13441 14.142C7.02061 13.2716 8.65126 12.5849 9.83356 12.5849C10.5686 12.5849 10.6526 12.6342 10.5938 13.0364C10.4426 14.0843 7.42591 15.5952 5.85196 15.4104C5.18521 15.3327 5.17786 15.3411 4.95631 16.4478C4.83451 17.0621 4.73371 17.8916 4.73371 18.2937C4.73371 18.5142 5.01931 18.6003 5.14216 18.4176L5.22091 18.3021C6.02731 17.1072 8.40241 15.7181 9.14686 16.0047C10.2798 16.4426 7.71676 19.034 5.62411 19.5674C4.78831 19.7805 4.78516 19.7858 4.58461 21.0426C4.56256 21.1854 4.35151 21.1718 4.34836 21.0269L4.34626 20.9744L4.34206 20.819C4.33214 20.4646 4.22503 20.1199 4.03245 19.8223C3.83987 19.5247 3.56922 19.2858 3.25006 19.1316C2.53606 18.7872 1.94491 18.2885 1.43041 17.5986C0.720614 16.6442 0.263864 15.3779 0.531614 15.108C1.02511 14.6124 3.20386 16.3281 3.81706 17.6952C4.01971 18.1478 4.24231 18.5184 4.31266 18.5184C4.38196 18.5184 4.55101 17.8128 4.68646 16.9508L4.76731 16.4447C4.81858 16.1205 4.78616 15.7885 4.67315 15.4804C4.56014 15.1722 4.37027 14.898 4.12156 14.6838C3.18496 13.8774 2.42476 12.65 2.10556 11.4309C1.75066 10.0754 2.12866 9.58606 3.03691 10.2266ZM5.92231 12.8925C5.92231 13.0049 5.79946 13.4186 5.64931 13.8123C5.49811 14.2071 5.37211 14.3898 5.36896 14.2218C5.36476 14.0538 5.48761 13.6391 5.64196 13.301C5.79526 12.9639 5.92126 12.7791 5.92231 12.8915V12.8925ZM8.94211 19.8803C9.27601 20.756 7.10566 23.3537 5.63146 23.844C4.80931 24.117 4.76941 24.411 5.27866 26.4491L5.31226 26.5856C5.40151 26.9426 5.90236 26.9604 6.01786 26.6108C6.30661 25.7393 6.71086 25.1009 7.48996 24.2934C8.62291 23.1153 9.06496 23.0124 9.16996 23.8976C9.30331 25.0337 7.81126 27.3836 6.53446 28.0482C6.21526 28.2141 5.95381 28.4546 5.95381 28.5837C5.95381 28.7129 6.24256 29.4153 6.59641 30.1451L6.76441 30.4916C6.92611 30.8255 7.41541 30.7761 7.50676 30.4181C7.84906 29.0741 8.41711 27.96 9.07546 27.3416C10.9382 25.5923 10.325 29.8595 8.44231 31.7547C8.03806 32.1611 7.97191 32.7942 8.28376 33.2772L8.63026 33.8138L8.77411 34.0364C8.8279 34.1187 8.90589 34.1824 8.99736 34.2186C9.08884 34.2548 9.18928 34.2617 9.28486 34.2385C9.38045 34.2152 9.46647 34.1629 9.53107 34.0887C9.59568 34.0145 9.6357 33.9221 9.64561 33.8243C9.78946 32.3669 10.347 30.8727 10.9245 30.3929C11.2448 30.1262 11.3162 30.1367 11.5671 30.4832C12.1656 31.3064 11.7509 33.7823 10.7618 35.2859C10.4678 35.7342 10.5308 36.3275 10.9109 36.7034L11.4747 37.2609L12.0995 37.8794C12.278 38.0547 12.5762 37.8941 12.5258 37.6484C12.1635 35.8697 12.5205 33.4274 13.181 33.1712C14.0892 32.8215 14.5848 35.8854 13.9328 37.8153L13.8089 38.1818C13.6461 38.6648 13.8341 39.1992 14.2667 39.4733C14.6709 39.7295 15.3041 40.0959 15.6716 40.287C15.8816 40.3952 16.1073 40.1715 16.0002 39.9615L15.9236 39.8082C15.4658 38.9052 15.176 36.8714 15.386 36.0303C15.6254 35.0696 16.2753 35.3478 16.8938 36.6761C17.3505 37.6589 17.4408 38.1356 17.4419 39.5615V40.1327C17.4419 40.8309 17.8356 41.4693 18.4583 41.7843C20.0795 42.6012 21.0003 43.6617 21.0003 44.7117C21.0003 45.389 20.343 45.1212 20.1477 44.3652C19.9661 43.6596 19.2353 42.9561 17.8188 42.1203L17.5868 41.9838C17.3921 41.8689 17.1651 41.821 16.9406 41.8474C16.7161 41.8737 16.5064 41.9729 16.3436 42.1298C15.5592 42.8858 13.8929 43.479 12.5531 43.479C11.3666 43.479 10.9571 43.1483 11.4317 42.5729C11.8496 42.0668 13.5453 41.378 14.6919 41.2499C14.7725 41.2406 14.8482 41.2065 14.9087 41.1524C14.9692 41.0983 15.0114 41.0268 15.0296 40.9478C15.0478 40.8687 15.041 40.7859 15.0103 40.7109C14.9795 40.6358 14.9262 40.5721 14.8578 40.5285L14.4273 40.2576L13.8624 39.9006C13.615 39.7446 13.3312 39.6558 13.039 39.6429C12.7468 39.63 12.4563 39.6935 12.1961 39.8271C11.0537 40.4151 8.95786 40.5663 7.93621 40.1369C7.51621 39.9615 7.17391 39.7347 7.17391 39.6329C7.17391 38.9052 9.41041 38.2511 11.1156 38.481C11.1862 38.4906 11.2579 38.4779 11.3209 38.4445C11.3838 38.4112 11.4346 38.359 11.4663 38.2952C11.4979 38.2314 11.5088 38.1593 11.4973 38.089C11.4858 38.0188 11.4526 37.9539 11.4023 37.9035L10.9508 37.4499C9.84406 36.3369 9.76741 36.2949 9.16576 36.507C7.77976 36.9932 4.98676 36.5501 4.24651 35.7269C3.91051 35.3552 3.91681 35.3216 4.35991 35.0087C4.98361 34.5698 6.78541 34.595 8.13046 35.0622C8.71216 35.2649 9.13111 35.331 9.06076 35.2092C8.77211 34.7517 8.47632 34.2988 8.17351 33.8505L8.12941 33.7844C7.90913 33.4545 7.61085 33.184 7.26101 32.997C6.91117 32.81 6.5206 32.7122 6.12391 32.7123C4.07956 32.7123 1.27711 31.2276 1.89871 30.4737C2.38906 29.8794 4.81561 30.333 6.20056 31.2791C6.40216 31.4166 6.65836 31.2024 6.55756 30.9788L6.19636 30.1776L5.86246 29.4384C5.74535 29.1785 5.56417 28.9525 5.33589 28.7817C5.10762 28.611 4.83973 28.5009 4.55731 28.4619C4.05016 28.3926 3.23746 28.1417 2.75131 27.9054C0.901214 27.0035 -0.270586 25.2699 0.970514 25.2699C1.75486 25.2699 3.49996 26.0081 4.36201 26.7053C5.29441 27.4592 5.29231 27.4697 4.63291 24.5297C4.56256 24.2115 4.32841 24.0624 3.76141 23.9711C2.30926 23.7369 0.128414 21.8585 0.00556367 20.7371C-0.148786 19.3154 2.94976 20.9439 4.15411 22.9169L4.20871 23.0061C4.30531 23.1636 4.54681 23.1006 4.55416 22.9169V22.9074C4.55836 22.8171 4.68751 22.8056 4.70746 22.8948C4.74736 23.0807 5.00146 23.1048 5.07811 22.9316L5.21251 22.625C5.62411 21.6852 6.65731 20.546 7.65586 19.9328C8.43811 19.454 8.77411 19.4393 8.94211 19.8803Z" fill="white"/>
</g>
<defs>
<clipPath id="clip0_28_3109">
<rect width="21" height="47.25" fill="white" transform="translate(0 -1.625)"/>
</clipPath>
</defs>
</svg>
