<svg width="56" height="56" viewBox="0 0 56 56" fill="none" xmlns="http://www.w3.org/2000/svg">
<rect width="56" height="56" rx="28" fill="#F7F7F7"/>
<path d="M37.3906 27.7226L25.1406 40.8476C25.0108 40.9862 24.8395 41.0787 24.6524 41.1114C24.4654 41.144 24.2728 41.1149 24.1038 41.0284C23.9347 40.942 23.7984 40.8029 23.7153 40.6322C23.6323 40.4615 23.607 40.2684 23.6433 40.082L25.2467 32.0616L18.9434 29.6947C18.8081 29.644 18.6874 29.5607 18.5921 29.452C18.4968 29.3433 18.4299 29.2127 18.3974 29.0719C18.3649 28.9311 18.3678 28.7844 18.4058 28.6449C18.4439 28.5055 18.5158 28.3776 18.6153 28.2728L30.8653 15.1478C30.9951 15.0093 31.1665 14.9167 31.3535 14.8841C31.5406 14.8515 31.7331 14.8806 31.9022 14.967C32.0712 15.0535 32.2075 15.1925 32.2906 15.3633C32.3737 15.534 32.399 15.7271 32.3627 15.9134L30.7548 23.9426L37.0581 26.3062C37.1925 26.3572 37.3123 26.4405 37.4068 26.5488C37.5013 26.657 37.5678 26.7869 37.6002 26.9269C37.6326 27.0669 37.6301 27.2127 37.5928 27.3515C37.5555 27.4903 37.4845 27.6178 37.3863 27.7226H37.3906Z" fill="#141721"/>
</svg>
