<svg width="22" height="44" viewBox="0 0 22 44" fill="none" xmlns="http://www.w3.org/2000/svg">
<g clip-path="url(#clip0_28_3127)">
<path fill-rule="evenodd" clip-rule="evenodd" d="M6.17841 0.745514C5.92712 1.70374 6.65948 3.88418 7.5473 4.82089C7.93743 5.23156 7.94428 5.26774 7.60988 5.15236C7.30872 5.04774 7.27743 5.07414 7.45735 5.28142C7.64019 5.49165 7.52579 5.54543 6.83939 5.56987C5.2417 5.62854 2.58899 7.2272 3.01041 7.88036C3.2001 8.17467 4.50446 8.12089 5.56241 7.77574C6.07379 7.60951 6.92837 7.09716 7.46028 6.63858C7.99317 6.17903 8.48695 5.84365 8.55637 5.89254C8.62677 5.94143 8.60135 5.88471 8.49868 5.76738C8.3833 5.6344 8.38819 5.36551 8.51139 5.0536C8.89859 4.08169 8.1985 1.67049 7.24517 0.698581C6.69468 0.137336 6.33388 0.152981 6.17939 0.745514H6.17841ZM0.73219 1.78489C0.479924 1.9384 0.495568 2.03716 0.849524 2.48889C1.46748 3.28383 2.9449 4.06703 4.24241 4.28898C5.30526 4.47085 5.6289 4.55005 6.79246 4.91769C7.01148 4.98614 6.90783 4.90009 6.56366 4.72507C6.2185 4.54907 5.81859 4.19707 5.67583 3.93991C5.28179 3.23396 4.04588 2.37938 2.82561 1.96871C1.61219 1.56 1.1673 1.52089 0.73219 1.78489ZM10.9392 3.04427C10.5158 3.66418 10.5158 5.77716 10.9392 6.88694C11.1093 7.3328 11.2296 7.70631 11.2071 7.71707C11.1856 7.72783 10.4053 7.75325 9.47646 7.77476C8.24055 7.80214 7.53361 7.92143 6.84232 8.21965C5.07646 8.98329 5.84695 9.69805 8.28943 9.56214C9.50383 9.49565 10.0172 9.36756 10.7671 8.94614L11.0829 8.76916C11.2606 8.66952 11.4671 8.63426 11.6677 8.66936C11.8684 8.70446 12.0507 8.80775 12.1839 8.96178C12.444 9.26098 12.8459 9.78996 13.0776 10.1361C13.3084 10.4822 13.544 10.7228 13.5988 10.669C13.7102 10.5614 12.4333 8.83467 11.9717 8.46703C11.7146 8.26169 11.7205 8.17271 12.0187 7.73565C12.2729 7.36409 12.3589 6.82631 12.3589 5.60996C12.3589 3.21147 11.6725 1.97165 10.9392 3.04427ZM14.3869 7.0776C14.0593 7.75814 13.9517 8.3448 13.9508 9.44089C13.9508 10.2788 13.8725 10.8528 13.7669 10.7902C13.6662 10.7316 13.6398 10.8225 13.7083 10.9926C13.81 11.2468 13.6848 11.2273 12.9965 10.8802C11.9248 10.3404 9.0961 10.2671 8.57592 10.7658C8.28161 11.0474 8.28161 11.0972 8.5769 11.3798C9.0081 11.7934 10.7368 12.2696 11.8055 12.2696C12.2807 12.2696 12.9808 12.1454 13.3602 11.9929C13.5505 11.9168 13.7621 11.9129 13.9551 11.9819C14.1481 12.0508 14.3093 12.1879 14.4084 12.3674L14.4387 12.4221C14.6518 12.8093 14.8308 13.0577 14.8357 12.9746C14.8405 12.8905 14.7037 12.561 14.5306 12.2412C14.2373 11.6956 14.2421 11.6331 14.6069 11.2498C15.5504 10.2603 16.1146 8.01627 15.7606 6.66596C15.5426 5.83094 14.8924 6.02649 14.3869 7.0776ZM17.6966 10.8352C17.0513 11.2674 16.1146 12.8172 15.7469 14.058L15.7049 14.1997C15.6742 14.3028 15.6177 14.3964 15.5408 14.4716C15.4638 14.5467 15.3689 14.601 15.2651 14.6292C15.1613 14.6574 15.052 14.6586 14.9476 14.6327C14.8432 14.6068 14.7471 14.5547 14.6685 14.4813C13.8021 13.6708 12.2074 13.0313 11.0507 13.0313C10.333 13.0313 10.2509 13.0772 10.3076 13.4517C10.4552 14.4276 13.4052 15.8346 14.9442 15.6625C15.5964 15.5901 15.6042 15.598 15.8203 16.6285C15.9396 17.2005 16.0373 17.973 16.0373 18.3475C16.0374 18.3934 16.0228 18.4382 15.9956 18.4753C15.9685 18.5124 15.9302 18.5399 15.8864 18.5537C15.8425 18.5676 15.7954 18.5671 15.7519 18.5523C15.7083 18.5375 15.6707 18.5093 15.6443 18.4716L15.5621 18.3543C14.7731 17.2426 12.4499 15.949 11.7224 16.2169C10.6146 16.6236 13.1206 19.0368 15.1671 19.5335C15.9836 19.732 15.9875 19.7369 16.184 20.9073C16.2065 21.0461 16.4109 21.0324 16.4148 20.8916L16.4167 20.8428L16.4197 20.743C16.4297 20.4011 16.535 20.0688 16.7236 19.7834C16.9122 19.498 17.1767 19.271 17.4874 19.1277C18.1884 18.8046 18.7994 18.3144 19.2669 17.7002C19.9612 16.8114 20.408 15.6322 20.1469 15.3809C19.6639 14.9194 17.5333 16.5171 16.934 17.7901C16.7355 18.2116 16.5174 18.5567 16.45 18.5567C16.3815 18.5567 16.2163 17.8996 16.0833 17.0969L16.01 16.653C15.9588 16.3445 15.9898 16.028 16.0998 15.7354C16.2098 15.4427 16.395 15.1842 16.6367 14.9859C17.5519 14.2349 18.296 13.0919 18.6079 11.9567C18.955 10.6944 18.5854 10.2388 17.6966 10.8352ZM14.8757 13.3178C14.8757 13.4224 14.995 13.8076 15.1427 14.1743C15.2893 14.542 15.4135 14.7121 15.4165 14.5556C15.4204 14.3992 15.3001 14.013 15.1505 13.6981C14.9999 13.3843 14.8767 13.2122 14.8767 13.3168L14.8757 13.3178ZM11.9229 19.8249C11.5963 20.6404 13.7181 23.0594 15.1593 23.516C15.964 23.7702 16.0031 24.044 15.5054 25.9419L15.4732 26.066C15.4533 26.1409 15.41 26.2074 15.3495 26.2558C15.2891 26.3042 15.2147 26.3319 15.1373 26.3348C15.0599 26.3378 14.9836 26.3158 14.9196 26.2722C14.8557 26.2286 14.8074 26.1656 14.7819 26.0924C14.4993 25.2809 14.1043 24.6864 13.3426 23.9345C12.2348 22.8374 11.8026 22.7416 11.6999 23.5659C11.5699 24.6238 13.0297 26.8121 14.2773 27.431C14.5902 27.5855 14.8445 27.8094 14.8445 27.9297C14.8445 28.05 14.5619 28.7041 14.2167 29.3836L14.0495 29.7132C14.0139 29.7836 13.9577 29.8415 13.8884 29.8793C13.8191 29.9171 13.7399 29.9329 13.6614 29.9246C13.5829 29.9163 13.5088 29.8844 13.4489 29.833C13.389 29.7816 13.3461 29.7132 13.326 29.6369C12.9916 28.3853 12.4362 27.3489 11.7928 26.772C9.97121 25.144 10.5706 29.1177 12.4117 30.8826C12.8029 31.2571 12.8664 31.8594 12.5613 32.3072L12.2269 32.8L12.0764 33.022C12.0232 33.1003 11.9472 33.1604 11.8587 33.194C11.7702 33.2277 11.6735 33.2333 11.5817 33.2102C11.4899 33.187 11.4074 33.1362 11.3455 33.0645C11.2835 32.9929 11.2451 32.904 11.2355 32.8098C11.0937 31.4526 10.5491 30.0612 9.98392 29.6144C9.67104 29.366 9.60259 29.3758 9.35619 29.6985C8.76952 30.4651 9.17628 32.7707 10.1433 34.1708C10.4278 34.5835 10.3682 35.1418 10.0035 35.485L9.44615 36.01L8.82232 36.5977C8.78474 36.6333 8.73676 36.6559 8.68539 36.6622C8.63403 36.6686 8.58198 36.6584 8.53686 36.633C8.49174 36.6077 8.45591 36.5685 8.43461 36.5214C8.41332 36.4742 8.40767 36.4215 8.4185 36.3708C8.77343 34.7145 8.42339 32.4402 7.77806 32.2016C6.89023 31.876 6.40526 34.7292 7.04277 36.5263L7.15521 36.8441C7.3185 37.3046 7.13566 37.817 6.71717 38.0702C6.26775 38.3385 5.80922 38.5913 5.34241 38.828C5.29775 38.8506 5.24704 38.8583 5.1977 38.85C5.14835 38.8417 5.10294 38.8178 5.06811 38.7819C5.03328 38.746 5.01084 38.6999 5.00407 38.6503C4.99731 38.6007 5.00657 38.5503 5.0305 38.5063L5.09699 38.3821C5.54383 37.5412 5.82739 35.6473 5.62206 34.8641C5.38739 33.9694 4.75183 34.2285 4.14757 35.4654C3.7017 36.3806 3.61272 36.8245 3.61272 38.1524V38.6412C3.61272 39.3159 3.22552 39.93 2.61735 40.2223C1.03335 40.984 0.132812 41.9716 0.132812 42.9493C0.132812 43.58 0.77619 43.3307 0.966857 42.6267C1.14383 41.9696 1.85859 41.3145 3.24312 40.5362L3.47779 40.4052C3.66815 40.2983 3.88738 40.2543 4.10422 40.2794C4.32106 40.3046 4.52443 40.3975 4.68535 40.545C5.4529 41.249 7.0809 41.8014 8.39112 41.8014C9.55175 41.8014 9.95263 41.4934 9.48917 40.9576C9.08046 40.4863 7.42117 39.8449 6.30063 39.7256C6.22427 39.7175 6.15239 39.6856 6.09513 39.6344C6.03787 39.5832 5.99812 39.5154 5.98148 39.4404C5.96485 39.3655 5.97217 39.2872 6.00241 39.2166C6.03266 39.146 6.0843 39.0867 6.15006 39.047L6.55877 38.8016L7.10828 38.4711C7.35306 38.3243 7.6307 38.241 7.9159 38.2288C8.2011 38.2167 8.4848 38.2761 8.74117 38.4017C9.85779 38.9483 11.9082 39.0891 12.9065 38.6892C13.3172 38.5259 13.6516 38.3147 13.6516 38.2198C13.6516 37.5422 11.4653 36.9331 9.79815 37.1472C9.73072 37.1559 9.66228 37.143 9.60258 37.1105C9.54289 37.078 9.49499 37.0275 9.46572 36.9661C9.43645 36.9047 9.42731 36.8357 9.4396 36.7689C9.45188 36.702 9.48497 36.6407 9.53415 36.5938L9.9585 36.187C11.0409 35.1506 11.1162 35.1115 11.7048 35.309C13.06 35.7617 15.7909 35.3491 16.5145 34.5825C16.8421 34.2364 16.8372 34.2051 16.403 33.9137C15.7939 33.505 14.0309 33.5284 12.7168 33.9636C12.1477 34.1523 11.7381 34.2139 11.8075 34.1004C11.8759 33.987 12.2661 33.418 12.6748 32.8352L12.6943 32.8078C12.9177 32.489 13.2147 32.2287 13.56 32.049C13.9054 31.8692 14.2889 31.7754 14.6782 31.7753C16.6768 31.7753 19.4175 30.3927 18.8093 29.6907C18.3302 29.1372 15.9572 29.5596 14.6039 30.4406C14.4045 30.5697 14.161 30.3565 14.2627 30.1424L14.6078 29.4149L14.9188 28.7579C15.0382 28.5058 15.2189 28.2876 15.4444 28.1233C15.6698 27.959 15.9329 27.8538 16.2094 27.8172C16.8179 27.7197 17.4115 27.5455 17.9763 27.299C19.7852 26.4591 20.9311 24.8448 19.7177 24.8448C18.9501 24.8448 17.2439 25.5322 16.4021 26.1814C15.4898 26.8835 15.4908 26.8932 16.1361 24.1555C16.2045 23.8592 16.4333 23.7204 16.9887 23.6353C18.4085 23.4172 20.541 21.668 20.6603 20.6237C20.8118 19.2998 17.7817 20.8164 16.6045 22.6536L16.5458 22.7436C16.525 22.7757 16.4945 22.8004 16.4587 22.8141C16.4229 22.8277 16.3838 22.8297 16.3468 22.8197C16.3098 22.8097 16.277 22.7882 16.253 22.7584C16.229 22.7285 16.2151 22.6919 16.2133 22.6536V22.6468C16.2094 22.5588 16.0833 22.547 16.0637 22.6331C16.055 22.6723 16.0341 22.7079 16.0041 22.7346C15.974 22.7614 15.9363 22.778 15.8963 22.7821C15.8562 22.7862 15.8159 22.7776 15.781 22.7575C15.7462 22.7375 15.7185 22.7069 15.702 22.6702L15.57 22.3818C15.1671 21.5067 14.1561 20.4458 13.1803 19.8748C12.4157 19.4289 12.0871 19.4152 11.9229 19.8259V19.8249Z" fill="white"/>
</g>
<defs>
<clipPath id="clip0_28_3127">
<rect width="21.5111" height="44" fill="white" transform="translate(0 -0.199219)"/>
</clipPath>
</defs>
</svg>
